vn -0.544096 -0.0681736 -0.836249
v 26.7909 -17.2968 3.20494
vn -0.300386 -0.404854 -0.863633
v 27.0432 -17.7693 3.20923
vn -0.0633422 -0.105246 -0.992427
v 27.3228 -17.3474 3.02207
vn 0.112361 -0.452829 -0.884489
v 27.5756 -17.8458 3.20315
vn 0.336285 -0.0786858 -0.938467
v 27.8276 -17.353 3.10493
vn 0.445922 -0.314368 -0.83805
v 28.1561 -17.7516 3.38292
vn -0.247587 0.267298 -0.931264
v 27.0918 -16.9216 3.08168
vn -0.595325 0.356576 -0.720029
v 26.7332 -16.81 3.32046
vn 0.165029 0.320275 -0.932839
v 27.5895 -16.8534 3.11708
vn 0.449123 0.141584 -0.88218
v 28.2571 -16.939 3.38256
vn -0.245811 0.588258 -0.770409
v 27.1377 -16.48 3.34287
vn 0.103472 0.493624 -0.863498
v 27.771 -16.2868 3.45135
vn -0.766207 -0.375474 -0.521484
v 26.1773 -18.2148 4.07851
vn -0.60445 -0.695773 -0.387994
v 26.3497 -18.6705 4.40443
vn -0.457258 -0.590397 -0.665091
v 26.5449 -18.433 3.87418
vn -0.240813 -0.802064 -0.546537
v 26.8633 -18.768 4.12083
vn -0.166099 -0.631529 -0.757352
v 27.1236 -18.3208 3.5814
vn -0.0095252 -0.770548 -0.63731
v 27.5956 -18.8583 4.143
vn 0.189666 -0.62209 -0.759625
v 27.8011 -18.2841 3.55256
vn 0.33942 -0.544934 -0.766708
v 28.377 -18.3668 3.86095
vn -0.618957 -0.286697 -0.73123
v 26.5101 -17.8539 3.59631
vn -0.886256 -0.0493771 -0.460556
v 26.0186 -17.6472 4.16613
vn 0.492341 -0.18697 -0.850084
v 28.758 -17.572 3.70741
vn -0.798721 0.12794 -0.587942
v 26.3599 -17.1292 3.66342
vn -0.875312 0.274479 -0.398108
v 26.0445 -16.8665 4.36676
vn 0.478699 0.101439 -0.8721
v 28.8711 -16.809 3.73304
vn -0.660188 0.516121 -0.545684
v 26.5798 -16.472 3.78835
vn -0.369302 0.617781 -0.694235
v 27.1922 -15.9093 3.85141
vn -0.18762 0.6789 -0.709854
v 27.6555 -15.4366 4.05359
vn -0.000916894 0.54737 -0.83689
v 27.8617 -15.7833 3.75426
vn 0.32514 0.372412 -0.869249
v 28.4776 -16.0977 3.74579
vn 0.124009 0.613712 -0.77973
v 28.1846 -15.4776 4.00555
vn -0.150623 -0.809213 -0.56788
v 27.6435 -19.4142 4.8461
vn -0.135441 -0.858734 -0.494199
v 28.0702 -19.8514 5.44953
vn 0.115946 -0.692886 -0.711664
v 28.5019 -19.173 4.57656
vn 0.0572727 -0.799908 -0.597384
v 29.0823 -19.7801 5.2911
vn 0.219634 -0.541651 -0.811403
v 29.5031 -19.16 4.74811
vn 0.226187 -0.734409 -0.639909
v 29.7986 -19.641 5.22435
vn 0.413851 -0.506581 -0.756375
v 30.1315 -19.2358 5.00917
vn 0.449218 -0.693731 -0.562974
v 30.2896 -19.5873 5.44703
vn -0.892102 -0.357234 -0.276655
v 25.9412 -18.23 4.66526
vn -0.727592 -0.656533 -0.198936
v 26.1553 -18.7414 5.0633
vn -0.425673 -0.818434 -0.385965
v 26.8344 -19.156 4.92597
vn 0.383196 -0.358548 -0.851237
v 29.2566 -18.2667 4.2187
vn 0.473268 -0.29691 -0.829374
v 30.2331 -18.4776 4.75562
vn 0.565679 -0.489025 -0.663974
v 30.751 -19.0766 5.38909
vn -0.968495 -0.0275372 -0.247505
v 25.7482 -17.537 4.9603
vn 0.493063 -0.051001 -0.868498
v 29.3925 -17.2136 4.03368
vn 0.474352 -0.136849 -0.869633
v 29.96 -17.6293 4.38166
vn 0.602336 -0.289954 -0.743719
v 31.2073 -18.3245 5.37252
vn 0.534717 -0.102641 -0.838775
v 30.7608 -17.4385 4.83942
vn 0.60368 -0.134482 -0.785802
v 31.6371 -17.4532 5.45943
vn -0.928792 0.230106 -0.29051
v 25.7722 -16.6172 5.34296
vn 0.445459 0.220458 -0.867735
v 29.2865 -16.2886 4.06516
vn 0.49174 0.0911527 -0.865958
v 30.1085 -16.6577 4.4539
vn 0.588841 0.0386017 -0.807326
v 31.2482 -16.8679 5.12874
vn 0.523161 0.107958 -0.845368
v 30.8076 -16.5924 4.85885
vn -0.716808 0.500359 -0.48562
v 26.4085 -15.9789 4.57871
vn -0.651341 0.607451 -0.454706
v 26.5837 -15.1806 5.19693
vn -0.450403 0.653744 -0.608076
v 27.1328 -15.3383 4.45604
vn 0.252162 0.500091 -0.828447
v 28.9049 -15.3989 4.26459
vn 0.423862 0.306309 -0.852359
v 29.8062 -15.669 4.50373
vn 0.519229 0.285038 -0.805701
v 30.592 -15.8132 4.92299
vn -0.386547 0.724663 -0.570478
v 27.2296 -14.8517 4.9156
vn -0.486329 0.778552 -0.396662
v 27.0223 -14.623 5.45418
vn -0.092386 0.736719 -0.669858
v 28.0053 -14.9424 4.54473
vn 0.0977139 0.693139 -0.71415
v 28.8892 -14.7332 4.72963
vn 0.306419 0.559962 -0.769773
v 29.5662 -14.9371 4.74691
vn 0.480024 0.439533 -0.759202
v 30.1793 -15.1596 4.91786
vn -0.233602 0.846606 -0.478213
v 27.6876 -14.4317 5.2985
vn -0.0282677 0.847546 -0.529968
v 28.5558 -14.345 5.22399
vn 0.205603 0.798664 -0.565564
v 29.425 -14.4177 5.23627
vn 0.410195 0.663826 -0.62536
v 30.0484 -14.6861 5.20587
vn -0.568746 -0.787198 -0.238428
v 26.8312 -19.5228 5.79429
vn -0.427164 -0.871806 -0.23976
v 27.3812 -19.934 6.17743
vn -0.336702 -0.856351 -0.391529
v 27.3152 -19.6485 5.39947
vn -0.250544 -0.908026 -0.335734
v 28.0025 -20.1753 6.1276
vn -0.0813285 -0.89141 -0.44584
v 28.7079 -20.2784 6.13487
vn 0.283807 -0.825047 -0.488622
v 29.8916 -20.1178 6.0637
vn 0.511782 -0.712292 -0.480332
v 30.7143 -19.6448 5.95987
vn -0.918905 -0.375076 -0.122195
v 25.804 -18.266 5.49042
vn -0.747299 -0.651182 -0.132311
v 26.232 -18.9897 5.92077
vn 0.622326 -0.461229 -0.632438
v 31.239 -18.8579 5.64814
vn 0.636339 -0.611057 -0.47083
v 31.2717 -19.2491 6.10578
vn 0.676959 -0.473501 -0.563493
v 31.6326 -18.7246 5.99289
vn -0.984806 -0.100142 -0.141874
v 25.5793 -17.5185 5.87535
vn 0.697364 -0.381512 -0.606739
v 32.0399 -18.1188 6.06537
vn 0.652329 -0.21006 -0.728245
v 32.1023 -17.5881 5.83053
vn 0.768451 -0.213883 -0.603106
v 32.391 -17.5857 6.14917
vn -0.985781 0.101208 -0.134138
v 25.5225 -16.8351 6.22869
vn 0.58431 0.21086 -0.783658
v 31.2049 -16.2202 5.20885
vn 0.643446 0.118846 -0.756209
v 31.7166 -16.638 5.53155
vn 0.699039 0.0282663 -0.714524
v 32.1778 -17.1214 5.88048
vn -0.832065 0.417385 -0.365319
v 26.0519 -15.771 5.39947
vn -0.931066 0.323999 -0.16775
v 25.7388 -15.9696 6.2176
vn 0.556283 0.360627 -0.748664
v 31.1089 -15.6101 5.36048
vn 0.633765 0.293027 -0.715875
v 31.6012 -15.8881 5.64492
vn -0.797212 0.531792 -0.285744
v 26.1323 -15.3074 5.86486
vn -0.635116 0.722487 -0.273202
v 26.5808 -14.7048 6.09684
vn 0.578457 0.462456 -0.671954
v 31.3172 -15.2937 5.70786
vn 0.521396 0.534846 -0.664896
v 30.7011 -15.0276 5.42247
vn -0.378641 0.878382 -0.291678
v 27.3581 -14.2317 6.05547
vn -0.136708 0.920732 -0.365464
v 28.2564 -14.0144 5.97203
vn 0.106041 0.896106 -0.430987
v 29.2324 -14.0188 5.91946
vn 0.367359 0.781431 -0.504393
v 30.2672 -14.3242 5.90634
vn -0.204928 -0.91852 -0.33812
v 28.6838 -20.6035 6.83534
vn -0.0531366 -0.980942 -0.186892
v 29.1111 -20.8004 7.33554
vn 0.0155566 -0.900781 -0.433996
v 29.3264 -20.5793 6.62589
vn 0.204376 -0.946944 -0.248046
v 29.6838 -20.7118 7.03704
vn 0.304929 -0.854621 -0.420288
v 29.8215 -20.539 6.65522
vn 0.479767 -0.839966 -0.253538
v 30.2295 -20.47 7.08687
vn -0.65267 -0.753407 -0.0800022
v 26.6549 -19.5337 6.64067
vn -0.552403 -0.831919 -0.0525414
v 27.158 -19.9567 7.1193
vn -0.402823 -0.892548 -0.20271
v 27.9519 -20.3565 6.92511
vn 0.510155 -0.796781 -0.323853
v 30.7598 -19.982 6.66547
vn 0.603474 -0.704727 -0.373067
v 31.0826 -19.651 6.4038
vn 0.652772 -0.71514 -0.249926
v 31.402 -19.5964 7.01034
vn -0.920395 -0.388788 -0.0414344
v 25.7347 -18.2709 6.46412
vn -0.818191 -0.574912 -0.00631377
v 26.0933 -18.936 7.06744
vn 0.692715 -0.627672 -0.35521
v 31.8269 -19.0202 6.65903
vn 0.742898 -0.489851 -0.456232
v 32.0075 -18.6357 6.39629
vn 0.771599 -0.540156 -0.335956
v 32.3467 -18.5466 6.98709
vn -0.990891 -0.133403 -0.0183949
v 25.5004 -17.4731 6.7873
vn 0.796975 -0.385884 -0.464678
v 32.6401 -17.8611 6.7035
vn 0.808577 -0.0567538 -0.585647
v 32.7171 -17.1109 6.50871
vn 0.877405 -0.276293 -0.392203
v 33.0266 -17.5092 7.13611
vn -0.991172 0.132431 -0.00635807
v 25.5041 -16.6428 6.99294
vn 0.698476 0.206918 -0.685067
v 32.252 -16.2961 6.11055
vn 0.803839 0.15799 -0.573482
v 32.8407 -16.3862 6.71458
vn 0.920801 -0.0348893 -0.38847
v 33.1595 -16.8873 7.21407
vn -0.946308 0.323263 -0.00116271
v 25.7307 -15.7239 7.29728
vn 0.628863 0.428402 -0.648848
v 31.8425 -15.4042 6.1183
vn 0.727726 0.372868 -0.57566
v 32.5421 -15.5736 6.73568
vn 0.898403 0.22227 -0.37877
v 33.1228 -16.1085 7.33578
vn -0.840983 0.515428 -0.164564
v 26.0407 -15.1582 6.58429
vn -0.69006 0.710967 -0.135435
v 26.3821 -14.6317 6.8835
vn 0.507644 0.631775 -0.585798
v 31.2255 -14.7709 6.10125
vn 0.561553 0.598844 -0.571002
v 31.9219 -14.8187 6.67024
vn 0.840195 0.432656 -0.326926
v 32.9136 -15.3434 7.53534
vn 0.693734 0.56053 -0.45226
v 32.455 -14.9175 7.14195
vn -0.505614 0.846256 -0.167947
v 26.9717 -14.2195 6.86014
vn -0.286493 0.922177 -0.259828
v 27.9238 -13.8015 6.88457
vn -0.028731 0.935604 -0.35188
v 28.9641 -13.6913 6.69205
vn 0.210749 0.877989 -0.429791
v 29.9936 -13.7925 6.70135
vn 0.430601 0.777742 -0.45793
v 31.1813 -14.1232 6.96611
vn 0.554415 0.736029 -0.38844
v 32.0504 -14.4644 7.27415
vn -0.469642 -0.881624 -0.0466527
v 28.0798 -20.5721 7.74276
vn -0.240273 -0.970615 0.0132567
v 28.6441 -20.79 8.00705
vn -0.296179 -0.939793 -0.170488
v 28.4482 -20.6863 7.3489
vn 0.0230913 -0.99973 0.00273569
v 29.2868 -20.8794 8.0092
vn 0.269755 -0.958522 -0.0920252
v 29.7746 -20.781 7.65455
vn 0.462691 -0.886144 -0.025801
v 30.3647 -20.5516 8.07047
vn -0.702003 -0.709132 0.0657477
v 26.5982 -19.4752 7.78794
vn -0.56562 -0.82131 0.0743283
v 27.5025 -20.1689 8.129
vn 0.578998 -0.803788 -0.136698
v 30.9284 -20.1333 7.61807
vn 0.637354 -0.766147 -0.0824576
v 31.5522 -19.7105 8.12995
vn -0.940889 -0.331824 0.0679772
v 25.7045 -18.144 7.54809
vn -0.836727 -0.538054 0.101911
v 26.0551 -18.8201 7.94685
vn 0.711315 -0.677094 -0.188614
v 32.0245 -19.167 7.57837
vn 0.772129 -0.62092 -0.135185
v 32.572 -18.6721 8.05116
vn -0.992309 -0.082542 0.0922484
v 25.5062 -17.3013 7.55
vn 0.833523 -0.492676 -0.250018
v 32.89 -18.0663 7.53045
vn 0.941073 -0.283631 -0.184214
v 33.2418 -17.4695 7.84039
vn -0.986988 0.102903 0.123551
v 25.5684 -16.6198 7.9037
vn 0.984639 -0.012597 -0.174146
v 33.3842 -16.7218 8.00717
vn -0.951408 0.26999 0.148083
v 25.7525 -15.8884 8.26764
vn 0.954258 0.253691 -0.158216
v 33.3088 -15.9189 8.16739
vn -0.833884 0.551601 -0.0193002
v 26.0733 -14.9583 7.26521
vn -0.865829 0.489714 0.102571
v 26.0114 -15.137 7.94029
vn 0.857081 0.504024 -0.106643
v 33.0263 -15.1773 8.38995
vn 0.718885 0.658605 -0.222357
v 32.5496 -14.6951 7.79903
vn -0.679292 0.733605 0.019647
v 26.5319 -14.4645 7.671
vn -0.50769 0.856022 -0.0973551
v 27.3267 -13.8942 7.67231
vn -0.463895 0.885268 -0.0332123
v 27.76 -13.5808 8.39174
vn -0.329107 0.926046 -0.184733
v 28.0277 -13.5454 7.69329
vn -0.125995 0.95463 -0.269828
v 28.7407 -13.444 7.46953
vn 0.0691697 0.94227 -0.327632
v 29.6642 -13.4379 7.40361
vn 0.266857 0.885144 -0.381193
v 30.575 -13.56 7.49874
vn 0.471272 0.823216 -0.316572
v 31.2492 -13.701 7.81643
vn 0.58704 0.782207 -0.208654
v 31.9073 -14.1059 8.00574
vn -0.216002 0.97009 -0.110765
v 28.5284 -13.3132 8.24046
vn -0.0218122 0.98727 -0.157551
v 29.3783 -13.2321 8.14533
vn 0.146691 0.972055 -0.183275
v 30.2409 -13.2859 8.12292
vn 0.338525 0.921164 -0.191985
v 30.9004 -13.4294 8.14319
vn -0.457415 -0.877905 0.14161
v 28.1569 -20.5833 8.33094
vn -0.283206 -0.932662 0.223465
v 28.5875 -20.7058 8.64434
vn -0.0449178 -0.980365 0.192009
v 29.1316 -20.8098 8.57973
vn 0.230978 -0.96608 0.11549
v 29.7649 -20.7779 8.40497
vn 0.367497 -0.912226 0.181077
v 30.2299 -20.5562 8.82709
vn -0.675645 -0.719186 0.162094
v 26.8761 -19.608 8.75449
vn -0.528585 -0.817773 0.227696
v 27.4709 -19.9386 9.31394
vn -0.390585 -0.867321 0.308542
v 28.2535 -20.4104 9.06456
vn 0.520699 -0.851104 0.0670461
v 30.9067 -20.1905 8.74805
vn 0.619014 -0.782744 0.0642856
v 31.5853 -19.7033 9.16421
vn -0.908859 -0.375772 0.181026
v 25.8836 -18.3532 8.40175
vn -0.804779 -0.549218 0.225147
v 26.3127 -18.9182 8.80337
vn 0.706289 -0.707406 -0.02706
v 32.1258 -19.2265 8.618
vn 0.779955 -0.624294 0.0438963
v 32.6273 -18.678 9.05812
vn -0.972219 -0.144007 0.184533
v 25.6785 -17.5408 8.41463
vn -0.899216 -0.33123 0.285828
v 25.9793 -18.1198 9.11188
vn 0.867851 -0.493216 -0.0597747
v 33.0308 -18.0924 8.45599
vn 0.963613 -0.267134 -0.00941701
v 33.3443 -17.3903 8.72421
vn -0.9709 0.0741205 0.227728
v 25.7329 -16.6694 8.83412
vn 0.999917 0.00680765 0.0108995
v 33.4535 -16.5905 8.89874
vn -0.871939 0.419917 0.251779
v 26.0437 -15.3779 8.71444
vn -0.925106 0.258296 0.278319
v 25.8629 -15.9997 8.91709
vn -0.860763 0.31574 0.399243
v 26.121 -15.8047 9.38845
vn 0.958074 0.285343 0.0259544
v 33.3327 -15.7906 9.06384
vn -0.774065 0.607735 0.177428
v 26.3581 -14.7533 8.45909
vn -0.808864 0.509779 0.293025
v 26.5125 -14.941 9.32622
vn 0.832823 0.548827 0.0720726
v 32.9955 -15.0936 9.29403
vn 0.710143 0.703243 -0.0338468
v 32.5549 -14.5502 8.68523
vn -0.664135 0.739067 0.112718
v 26.9952 -14.1525 8.64494
vn -0.552784 0.822168 0.135904
v 27.6506 -13.6793 9.22811
vn 0.601351 0.794854 0.0811413
v 31.9507 -14.0376 9.06336
vn 0.514465 0.855787 -0.0543587
v 31.4068 -13.6373 8.53956
vn -0.296703 0.952953 0.0620227
v 28.3002 -13.3436 9.00495
vn -0.0791402 0.995148 0.0584522
v 29.1003 -13.1971 8.92305
vn 0.0935106 0.994342 0.0503937
v 29.9671 -13.2007 8.86607
vn 0.294382 0.954973 0.0369491
v 30.7676 -13.3467 8.77917
vn -0.153862 -0.920335 0.359598
v 28.9388 -20.642 9.07981
vn 0.112723 -0.94293 0.313332
v 29.6048 -20.6382 9.09901
vn -0.745147 -0.60195 0.287074
v 26.8662 -19.2821 9.68766
vn -0.498115 -0.797748 0.339822
v 27.4976 -19.6854 10.1771
vn -0.292357 -0.881496 0.370799
v 28.2301 -20.0583 10.0173
vn -0.0835701 -0.915437 0.393688
v 29.1811 -20.3556 9.78303
vn 0.264196 -0.923669 0.277555
v 30.2677 -20.3129 9.61983
vn 0.46248 -0.86993 0.171272
v 31.0482 -20.0031 9.64952
vn 0.595334 -0.773483 0.217491
v 31.4797 -19.6283 10.0849
vn -0.818578 -0.38746 0.424035
v 26.3898 -18.4484 9.7394
vn 0.698938 -0.697478 0.158144
v 32.076 -19.1919 9.63831
vn 0.763559 -0.599745 0.239339
v 32.5397 -18.5812 10.0167
vn -0.944388 -0.115318 0.30795
v 25.8613 -17.407 9.29213
vn -0.848798 -0.240415 0.470895
v 26.1209 -17.811 9.73451
vn 0.876786 -0.466466 0.116859
v 33.0383 -18.0285 9.40025
vn 0.956307 -0.229111 0.181619
v 33.3031 -17.2698 9.63116
vn -0.901566 0.191153 0.388123
v 25.9244 -16.3789 9.3385
vn -0.914802 0.0610155 0.399266
v 25.9137 -16.8731 9.49454
vn -0.824766 0.127559 0.550899
v 26.2113 -16.5874 9.91857
vn 0.975272 0.0343253 0.218325
v 33.3607 -16.4495 9.78076
vn -0.850402 0.24946 0.463235
v 26.4862 -15.688 10.0548
vn 0.924892 0.306062 0.225611
v 33.2072 -15.6874 9.90772
vn -0.825823 0.421311 0.374852
v 26.8271 -14.9319 10.21
vn 0.757361 0.579 0.301934
v 32.8434 -15.102 10.1144
vn 0.654491 0.730917 0.193394
v 32.4613 -14.5493 9.6283
vn -0.678925 0.67872 0.280001
v 27.2005 -14.2419 9.77921
vn -0.494758 0.778762 0.385673
v 27.798 -13.7723 9.89616
vn 0.466287 0.788688 0.400685
v 31.6743 -14.1419 10.0529
vn 0.446567 0.869856 0.20959
v 31.2718 -13.6398 9.37355
vn -0.33845 0.90018 0.274095
v 28.1553 -13.4781 9.61554
vn -0.122172 0.944575 0.304717
v 28.7979 -13.3501 9.63914
vn 0.0407155 0.949286 0.311767
v 29.649 -13.3154 9.62317
vn 0.219958 0.934595 0.279553
v 30.5041 -13.398 9.53281
vn -0.715751 -0.555035 0.423836
v 27.1473 -19.2856 10.4064
vn -0.491045 -0.64985 0.580146
v 27.5201 -19.4123 10.7114
vn -0.307996 -0.770608 0.557944
v 28.0921 -19.6215 10.778
vn -0.152888 -0.848382 0.506826
v 29.0939 -19.8366 10.8488
vn 0.0731205 -0.920221 0.384508
v 29.9133 -20.1007 10.4442
vn 0.333006 -0.885072 0.325198
v 30.776 -19.9018 10.4569
vn 0.54259 -0.76027 0.357192
v 31.3029 -19.5834 10.6515
vn -0.800895 -0.302889 0.516552
v 26.8762 -18.6943 10.4144
vn -0.659649 -0.358614 0.660499
v 27.2908 -19.0034 10.8188
vn 0.65866 -0.618968 0.427838
v 31.7708 -19.055 10.718
vn 0.726466 -0.494576 0.477118
v 32.4086 -18.3366 10.7344
vn -0.845599 -0.0456149 0.531867
v 26.0862 -17.2815 9.82869
vn -0.759443 -0.117456 0.639883
v 26.5819 -17.6066 10.3847
vn 0.853008 -0.392411 0.344081
v 32.9063 -17.8725 10.2677
vn 0.882475 -0.154114 0.444394
v 33.0794 -17.0741 10.4527
vn -0.750391 0.056717 0.658557
v 26.7543 -16.4385 10.63
vn 0.864177 0.0826785 0.49635
v 33.0757 -16.2447 10.5326
vn -0.747954 0.165834 0.642701
v 26.9265 -15.5336 10.7046
vn 0.805705 0.328077 0.493158
v 32.958 -15.6023 10.5183
vn -0.686303 0.363445 0.629997
v 27.1027 -14.94 10.7291
vn 0.611487 0.506426 0.607961
v 32.5976 -15.257 10.7108
vn 0.53622 0.690213 0.485875
v 32.2645 -14.7399 10.4488
vn -0.626908 0.636249 0.449636
v 27.2177 -14.5329 10.4699
vn -0.226947 0.816551 0.530791
v 28.3958 -13.6812 10.1714
vn -0.381081 0.718889 0.581356
v 27.8008 -14.1822 10.4958
vn -0.0311907 0.825628 0.563352
v 29.2371 -13.6384 10.276
vn -0.137614 0.669631 0.729833
v 28.6901 -14.1295 10.7626
vn 0.131003 0.826107 0.548073
v 30.1605 -13.6664 10.2358
vn 0.0368585 0.660349 0.750054
v 29.6678 -14.1536 10.8361
vn 0.319916 0.824746 0.466313
v 30.9286 -13.7402 10.0392
vn 0.212741 0.698524 0.683232
v 30.774 -14.2301 10.7143
vn 0.344018 0.679123 0.648416
v 31.599 -14.586 10.7808
vn -0.481067 -0.458552 0.747198
v 27.7945 -19.0468 11.1554
vn -0.386328 -0.634118 0.669809
v 28.5875 -19.1432 11.5374
vn -0.102775 -0.754867 0.647775
v 29.5394 -19.2528 11.811
vn 0.0986806 -0.866024 0.490168
v 30.1926 -19.6987 11.2218
vn 0.345892 -0.721718 0.599568
v 30.6518 -19.4231 11.5465
vn 0.463575 -0.74057 0.486471
v 30.9872 -19.4973 11.1215
vn -0.666495 -0.163586 0.72734
v 27.3723 -18.2458 11.1085
vn -0.595116 -0.277881 0.754068
v 28.0944 -18.4285 11.6526
vn -0.365281 -0.614507 0.69925
v 29.02 -18.8503 12.0991
vn -0.582471 -0.343947 0.736497
v 28.6363 -18.4693 12.0747
vn 0.527105 -0.500253 0.686954
v 31.0291 -18.882 11.7007
vn 0.564591 -0.207549 0.798849
v 31.3519 -17.9524 11.9305
vn 0.632789 -0.388818 0.669626
v 31.9063 -18.2498 11.3478
vn -0.635549 0.0076986 0.772022
v 27.3324 -17.0853 11.1837
vn -0.615562 0.0108028 0.788015
v 27.9793 -17.5578 11.694
vn -0.618499 -0.0609224 0.78342
v 28.419 -17.8988 12.0473
vn 0.583947 -0.0755834 0.808265
v 31.9629 -17.287 11.5929
vn 0.510459 0.056662 0.858033
v 31.3547 -17.2496 11.9984
vn 0.737139 -0.262226 0.622787
v 32.5602 -17.6413 10.9911
vn -0.543837 0.113461 0.831485
v 27.4222 -16.0467 11.1892
vn -0.441373 0.229945 0.867361
v 28.2358 -16.4846 11.6881
vn -0.508063 0.231586 0.829602
v 28.7077 -17.1791 12.1669
vn 0.37042 0.218614 0.902772
v 31.0726 -16.9594 12.1014
vn 0.241382 0.358529 0.901772
v 30.6378 -16.6418 12.1282
vn 0.362189 0.235382 0.901895
v 31.3979 -16.4728 11.8141
vn 0.523611 0.100527 0.846005
v 32.143 -16.4606 11.4861
vn 0.71596 -0.0296112 0.697513
v 32.6405 -16.7789 11.0985
vn -0.452103 0.256672 0.854238
v 27.4707 -15.2146 11.0759
vn -0.271726 0.298098 0.915043
v 28.2035 -15.474 11.4107
vn -0.287044 0.417082 0.862351
v 29.0636 -16.4654 12.054
vn -0.132911 0.424836 0.89546
v 29.2532 -15.7004 11.7133
vn 0.113379 0.43088 0.895259
v 30.5198 -15.7613 11.7525
vn 0.00332906 0.471052 0.882099
v 29.8319 -16.3538 12.1157
vn 0.242389 0.397166 0.885159
v 31.3886 -15.6215 11.5509
vn 0.416094 0.304273 0.856903
v 31.9213 -15.9011 11.4778
vn 0.629565 0.242678 0.738076
v 32.5441 -15.8954 11.0646
vn -0.41757 0.538289 0.732039
v 27.478 -14.6731 10.8484
vn -0.224696 0.503352 0.834355
v 28.0757 -14.708 11.0618
vn -0.0884314 0.490843 0.866748
v 28.9845 -14.7957 11.2597
vn 0.0498593 0.523594 0.850508
v 30.0524 -14.8794 11.3217
vn 0.186832 0.544425 0.817737
v 31.0699 -14.9852 11.2698
vn 0.40833 0.503571 0.76137
v 31.9586 -15.2246 11.1108
vn 0.173428 -0.677224 0.715046
v 30.326 -19.2788 11.7953
vn -0.460208 -0.382456 0.801209
v 29.0254 -18.4444 12.3906
vn -0.109871 -0.590146 0.799785
v 29.4533 -18.6681 12.3929
vn 0.240339 -0.553321 0.797542
v 30.185 -18.7244 12.2626
vn 0.402867 -0.210208 0.890792
v 30.3094 -18.0261 12.5762
vn 0.497989 -0.299255 0.813912
v 30.7721 -18.2675 12.2377
vn -0.552554 -0.0309268 0.832903
v 28.9211 -17.8909 12.4283
vn -0.302153 -0.271262 0.913849
v 29.2958 -18.2145 12.6109
vn 0.447015 0.0996456 0.888959
v 30.771 -17.4643 12.3131
vn 0.339275 0.21486 0.915821
v 30.2074 -17.5088 12.6323
vn -0.191454 0.454654 0.869848
v 29.4299 -16.8886 12.3792
vn -0.384476 0.267727 0.883459
v 29.2201 -17.3636 12.5414
vn 0.195223 0.425937 0.88344
v 30.1194 -16.9965 12.4255
vn -0.0312059 0.342869 0.938865
v 29.7318 -17.3426 12.6586
vn 0.0589651 -0.355014 0.932999
v 29.7727 -18.2241 12.6597
vn -0.247289 0.020113 0.968733
v 29.4608 -17.7826 12.7069
vn 0.123891 -0.0044769 0.992286
v 29.917 -17.7726 12.7509

vt 0 0
vt 0 0
vt 0 0
vt 0 0
vt 0 0
vt 0 0
vt 0 0
vt 0 0
vt 0 0
vt 0 0
vt 0 0
vt 0 0
vt 0 0
vt 0 0
vt 0 0
vt 0 0
vt 0 0
vt 0 0
vt 0 0
vt 0 0
vt 0 0
vt 0 0
vt 0 0
vt 0 0
vt 0 0
vt 0 0
vt 0 0
vt 0 0
vt 0 0
vt 0 0
vt 0 0
vt 0 0
vt 0 0
vt 0 0
vt 0 0
vt 0 0
vt 0 0
vt 0 0
vt 0 0
vt 0 0
vt 0 0
vt 0 0
vt 0 0
vt 0 0
vt 0 0
vt 0 0
vt 0 0
vt 0 0
vt 0 0
vt 0 0
vt 0 0
vt 0 0
vt 0 0
vt 0 0
vt 0 0
vt 0 0
vt 0 0
vt 0 0
vt 0 0
vt 0 0
vt 0 0
vt 0 0
vt 0 0
vt 0 0
vt 0 0
vt 0 0
vt 0 0
vt 0 0
vt 0 0
vt 0 0
vt 0 0
vt 0 0
vt 0 0
vt 0 0
vt 0 0
vt 0 0
vt 0 0
vt 0 0
vt 0 0
vt 0 0
vt 0 0
vt 0 0
vt 0 0
vt 0 0
vt 0 0
vt 0 0
vt 0 0
vt 0 0
vt 0 0
vt 0 0
vt 0 0
vt 0 0
vt 0 0
vt 0 0
vt 0 0
vt 0 0
vt 0 0
vt 0 0
vt 0 0
vt 0 0
vt 0 0
vt 0 0
vt 0 0
vt 0 0
vt 0 0
vt 0 0
vt 0 0
vt 0 0
vt 0 0
vt 0 0
vt 0 0
vt 0 0
vt 0 0
vt 0 0
vt 0 0
vt 0 0
vt 0 0
vt 0 0
vt 0 0
vt 0 0
vt 0 0
vt 0 0
vt 0 0
vt 0 0
vt 0 0
vt 0 0
vt 0 0
vt 0 0
vt 0 0
vt 0 0
vt 0 0
vt 0 0
vt 0 0
vt 0 0
vt 0 0
vt 0 0
vt 0 0
vt 0 0
vt 0 0
vt 0 0
vt 0 0
vt 0 0
vt 0 0
vt 0 0
vt 0 0
vt 0 0
vt 0 0
vt 0 0
vt 0 0
vt 0 0
vt 0 0
vt 0 0
vt 0 0
vt 0 0
vt 0 0
vt 0 0
vt 0 0
vt 0 0
vt 0 0
vt 0 0
vt 0 0
vt 0 0
vt 0 0
vt 0 0
vt 0 0
vt 0 0
vt 0 0
vt 0 0
vt 0 0
vt 0 0
vt 0 0
vt 0 0
vt 0 0
vt 0 0
vt 0 0
vt 0 0
vt 0 0
vt 0 0
vt 0 0
vt 0 0
vt 0 0
vt 0 0
vt 0 0
vt 0 0
vt 0 0
vt 0 0
vt 0 0
vt 0 0
vt 0 0
vt 0 0
vt 0 0
vt 0 0
vt 0 0
vt 0 0
vt 0 0
vt 0 0
vt 0 0
vt 0 0
vt 0 0
vt 0 0
vt 0 0
vt 0 0
vt 0 0
vt 0 0
vt 0 0
vt 0 0
vt 0 0
vt 0 0
vt 0 0
vt 0 0
vt 0 0
vt 0 0
vt 0 0
vt 0 0
vt 0 0
vt 0 0
vt 0 0
vt 0 0
vt 0 0
vt 0 0
vt 0 0
vt 0 0
vt 0 0
vt 0 0
vt 0 0
vt 0 0
vt 0 0
vt 0 0
vt 0 0
vt 0 0
vt 0 0
vt 0 0
vt 0 0
vt 0 0
vt 0 0
vt 0 0
vt 0 0
vt 0 0
vt 0 0
vt 0 0
vt 0 0
vt 0 0
vt 0 0
vt 0 0
vt 0 0
vt 0 0
vt 0 0
vt 0 0
vt 0 0
vt 0 0
vt 0 0
vt 0 0
vt 0 0
vt 0 0
vt 0 0
vt 0 0
vt 0 0
vt 0 0
vt 0 0
vt 0 0
vt 0 0
vt 0 0
vt 0 0
vt 0 0
vt 0 0
vt 0 0
vt 0 0
vt 0 0
vt 0 0
vt 0 0
vt 0 0
vt 0 0
vt 0 0
vt 0 0
vt 0 0
vt 0 0
vt 0 0
vt 0 0
vt 0 0
vt 0 0
vt 0 0
vt 0 0
vt 0 0
vt 0 0
vt 0 0
vt 0 0
vt 0 0
vt 0 0
vt 0 0
vt 0 0
vt 0 0
vt 0 0
vt 0 0
vt 0 0
vt 0 0
vt 0 0
vt 0 0
vt 0 0
vt 0 0
vt 0 0
vt 0 0
vt 0 0
vt 0 0
vt 0 0
vt 0 0
vt 0 0
vt 0 0
vt 0 0
vt 0 0
vt 0 0
vt 0 0
vt 0 0
vt 0 0
vt 0 0
vt 0 0
vt 0 0
vt 0 0
vt 0 0
vt 0 0
vt 0 0
vt 0 0
vt 0 0
vt 0 0
vt 0 0
vt 0 0
vt 0 0
vt 0 0
vt 0 0
vt 0 0
vt 0 0
vt 0 0
vt 0 0
vt 0 0
vt 0 0
vt 0 0
vt 0 0
vt 0 0
vt 0 0
vt 0 0
vt 0 0
vt 0 0
vt 0 0
vt 0 0
vt 0 0
vt 0 0
vt 0 0
vt 0 0
vt 0 0
vt 0 0
vt 0 0
vt 0 0
vt 0 0
vt 0 0
vt 0 0
vt 0 0
vt 0 0
vt 0 0
vt 0 0
vt 0 0
vt 0 0
vt 0 0
vt 0 0
vt 0 0
vt 0 0
vt 0 0
vt 0 0
vt 0 0
vt 0 0
vt 0 0
vt 0 0
vt 0 0
vt 0 0
vt 0 0
vt 0 0
vt 0 0
vt 0 0
vt 0 0
vt 0 0
vt 0 0
vt 0 0
vt 0 0
vt 0 0
vt 0 0
vt 0 0
vt 0 0
vt 0 0
vt 0 0
vt 0 0
vt 0 0
vt 0 0
vt 0 0
vt 0 0
vt 0 0
vt 0 0
vt 0 0
vt 0 0
vt 0 0
vt 0 0
vt 0 0
vt 0 0
vt 0 0
vt 0 0
vt 0 0
vt 0 0
vt 0 0
vt 0 0
vt 0 0
vt 0 0
vt 0 0
vt 0 0
vt 0 0
vt 0 0
vt 0 0
vt 0 0
vt 0 0
vt 0 0
vt 0 0
vt 0 0
vt 0 0
vt 0 0
vt 0 0
vt 0 0
vt 0 0
vt 0 0
vt 0 0
vt 0 0
vt 0 0
vt 0 0
vt 0 0
vt 0 0
vt 0 0
vt 0 0
vt 0 0
vt 0 0
vt 0 0
vt 0 0
vt 0 0
vt 0 0
vt 0 0
vt 0 0
vt 0 0
vt 0 0
vt 0 0
vt 0 0
vt 0 0
vt 0 0
vt 0 0
vt 0 0
vt 0 0
vt 0 0
vt 0 0
vt 0 0
vt 0 0
vt 0 0
vt 0 0
vt 0 0
vt 0 0
vt 0 0
vt 0 0
vt 0 0
vt 0 0
vt 0 0
vt 0 0
vt 0 0
vt 0 0
vt 0 0
vt 0 0
vt 0 0
vt 0 0
vt 0 0
vt 0 0
vt 0 0
vt 0 0
vt 0 0
vt 0 0
vt 0 0
vt 0 0
vt 0 0
vt 0 0
vt 0 0
vt 0 0
vt 0 0
vt 0 0
vt 0 0
vt 0 0
vt 0 0
vt 0 0
vt 0 0
vt 0 0
vt 0 0
vt 0 0
vt 0 0
vt 0 0
vt 0 0
vt 0 0
vt 0 0
vt 0 0
vt 0 0
vt 0 0
vt 0 0
vt 0 0
vt 0 0
vt 0 0
vt 0 0
vt 0 0
vt 0 0
vt 0 0
vt 0 0
vt 0 0
vt 0 0
vt 0 0
vt 0 0
vt 0 0
vt 0 0
vt 0 0
vt 0 0
vt 0 0
vt 0 0
vt 0 0
vt 0 0
vt 0 0
vt 0 0
vt 0 0
vt 0 0
vt 0 0
vt 0 0
vt 0 0
vt 0 0
vt 0 0
vt 0 0
vt 0 0
vt 0 0
vt 0 0
vt 0 0
vt 0 0
vt 0 0
vt 0 0
vt 0 0
vt 0 0
vt 0 0
vt 0 0
vt 0 0
vt 0 0
vt 0 0
vt 0 0
vt 0 0
vt 0 0
vt 0 0
vt 0 0
vt 0 0
vt 0 0
vt 0 0
vt 0 0
vt 0 0
vt 0 0
vt 0 0
vt 0 0
vt 0 0
vt 0 0
vt 0 0
vt 0 0
vt 0 0
vt 0 0
vt 0 0
vt 0 0
vt 0 0
vt 0 0
vt 0 0
vt 0 0
vt 0 0
vt 0 0
vt 0 0
vt 0 0
vt 0 0
vt 0 0
vt 0 0
vt 0 0
vt 0 0
vt 0 0
vt 0 0
vt 0 0
vt 0 0
vt 0 0
vt 0 0
vt 0 0
vt 0 0
vt 0 0
vt 0 0
vt 0 0
vt 0 0
vt 0 0
vt 0 0
vt 0 0
vt 0 0
vt 0 0
vt 0 0
vt 0 0
vt 0 0
vt 0 0
vt 0 0
vt 0 0
vt 0 0
vt 0 0
vt 0 0
vt 0 0
vt 0 0
vt 0 0
vt 0 0
vt 0 0
vt 0 0
vt 0 0
vt 0 0
vt 0 0
vt 0 0
vt 0 0
vt 0 0
vt 0 0
vt 0 0
vt 0 0
vt 0 0
vt 0 0
vt 0 0
vt 0 0
vt 0 0
vt 0 0
vt 0 0
vt 0 0
vt 0 0
vt 0 0
vt 0 0
vt 0 0
vt 0 0
vt 0 0
vt 0 0
vt 0 0
vt 0 0
vt 0 0
vt 0 0
vt 0 0
vt 0 0
vt 0 0
vt 0 0
vt 0 0
vt 0 0
vt 0 0
vt 0 0
vt 0 0
vt 0 0
vt 0 0
vt 0 0
vt 0 0
vt 0 0
vt 0 0
vt 0 0
vt 0 0
vt 0 0
vt 0 0
vt 0 0
vt 0 0
vt 0 0
vt 0 0
vt 0 0
vt 0 0
vt 0 0
vt 0 0
vt 0 0
vt 0 0
vt 0 0
vt 0 0
vt 0 0
vt 0 0
vt 0 0
vt 0 0
vt 0 0
vt 0 0
vt 0 0
vt 0 0
vt 0 0
vt 0 0
vt 0 0
vt 0 0
vt 0 0
vt 0 0
vt 0 0
vt 0 0
vt 0 0
vt 0 0
vt 0 0
vt 0 0
vt 0 0
vt 0 0
vt 0 0
vt 0 0
vt 0 0
vt 0 0
vt 0 0
vt 0 0
vt 0 0
vt 0 0
vt 0 0
vt 0 0
vt 0 0
vt 0 0
vt 0 0
vt 0 0
vt 0 0
vt 0 0
vt 0 0
vt 0 0
vt 0 0
vt 0 0
vt 0 0
vt 0 0
vt 0 0
vt 0 0
vt 0 0
vt 0 0
vt 0 0
vt 0 0
vt 0 0
vt 0 0
vt 0 0
vt 0 0
vt 0 0
vt 0 0
vt 0 0
vt 0 0
vt 0 0
vt 0 0
vt 0 0
vt 0 0
vt 0 0
vt 0 0
vt 0 0
vt 0 0
vt 0 0
vt 0 0
vt 0 0
vt 0 0
vt 0 0
vt 0 0
vt 0 0
vt 0 0
vt 0 0
vt 0 0
vt 0 0
vt 0 0
vt 0 0
vt 0 0
vt 0 0
vt 0 0
vt 0 0
vt 0 0
vt 0 0
vt 0 0
vt 0 0
vt 0 0
vt 0 0
vt 0 0
vt 0 0
vt 0 0
vt 0 0
vt 0 0
vt 0 0
vt 0 0
vt 0 0
vt 0 0
vt 0 0
vt 0 0
vt 0 0
vt 0 0
vt 0 0
vt 0 0
vt 0 0
vt 0 0
vt 0 0
vt 0 0
vt 0 0
vt 0 0
vt 0 0
vt 0 0
vt 0 0
vt 0 0
vt 0 0
vt 0 0
vt 0 0
vt 0 0
vt 0 0
vt 0 0
vt 0 0
vt 0 0
vt 0 0
vt 0 0
vt 0 0
vt 0 0
vt 0 0
vt 0 0
vt 0 0
vt 0 0
vt 0 0
vt 0 0
vt 0 0
vt 0 0
vt 0 0
vt 0 0
vt 0 0
vt 0 0
vt 0 0
vt 0 0
vt 0 0
vt 0 0
vt 0 0
vt 0 0
vt 0 0
vt 0 0
vt 0 0
vt 0 0
vt 0 0
vt 0 0
vt 0 0
vt 0 0
vt 0 0
vt 0 0
vt 0 0
vt 0 0
vt 0 0
vt 0 0
vt 0 0
vt 0 0
vt 0 0
vt 0 0
vt 0 0
vt 0 0
vt 0 0
vt 0 0
vt 0 0
vt 0 0
vt 0 0
vt 0 0
vt 0 0
vt 0 0
vt 0 0
vt 0 0
vt 0 0
vt 0 0
vt 0 0
vt 0 0
vt 0 0
vt 0 0
vt 0 0
vt 0 0
vt 0 0
vt 0 0
vt 0 0
vt 0 0
vt 0 0
vt 0 0
vt 0 0
vt 0 0
vt 0 0
vt 0 0
vt 0 0
vt 0 0
vt 0 0
vt 0 0
vt 0 0
vt 0 0
vt 0 0
vt 0 0
vt 0 0
vt 0 0
vt 0 0
vt 0 0
vt 0 0
vt 0 0
vt 0 0
vt 0 0
vt 0 0
vt 0 0
vt 0 0
vt 0 0
vt 0 0
vt 0 0
vt 0 0
vt 0 0
vt 0 0
vt 0 0
vt 0 0
vt 0 0
vt 0 0
vt 0 0
vt 0 0
vt 0 0
vt 0 0
vt 0 0
vt 0 0
vt 0 0
vt 0 0
vt 0 0
vt 0 0
vt 0 0
vt 0 0
vt 0 0
vt 0 0
vt 0 0
vt 0 0
vt 0 0
vt 0 0
vt 0 0
vt 0 0
vt 0 0
vt 0 0
vt 0 0
vt 0 0
vt 0 0
vt 0 0
vt 0 0
vt 0 0
vt 0 0
vt 0 0
vt 0 0
vt 0 0
vt 0 0
vt 0 0
vt 0 0
vt 0 0
vt 0 0
vt 0 0
vt 0 0
vt 0 0
vt 0 0
vt 0 0
vt 0 0
vt 0 0
vt 0 0
vt 0 0
vt 0 0
vt 0 0
vt 0 0
vt 0 0
vt 0 0
vt 0 0
vt 0 0
vt 0 0
vt 0 0
vt 0 0
vt 0 0
vt 0 0
vt 0 0
vt 0 0
vt 0 0
vt 0 0
vt 0 0
vt 0 0
vt 0 0
vt 0 0
vt 0 0
vt 0 0
vt 0 0
vt 0 0
vt 0 0
vt 0 0
vt 0 0
vt 0 0
vt 0 0
vt 0 0
vt 0 0
vt 0 0
vt 0 0
vt 0 0
vt 0 0
vt 0 0
vt 0 0
vt 0 0
vt 0 0
vt 0 0
vt 0 0
vt 0 0
vt 0 0
vt 0 0
vt 0 0
vt 0 0
vt 0 0
vt 0 0
vt 0 0
vt 0 0
vt 0 0
vt 0 0
vt 0 0
vt 0 0
vt 0 0
vt 0 0
vt 0 0
vt 0 0
vt 0 0
vt 0 0
vt 0 0
vt 0 0
vt 0 0
vt 0 0
vt 0 0
vt 0 0
vt 0 0
vt 0 0
vt 0 0
vt 0 0
vt 0 0
vt 0 0
vt 0 0
vt 0 0
vt 0 0
vt 0 0
vt 0 0
vt 0 0
vt 0 0
vt 0 0
vt 0 0
vt 0 0
vt 0 0
vt 0 0
vt 0 0
vt 0 0
vt 0 0
vt 0 0
vt 0 0
vt 0 0
vt 0 0
vt 0 0
vt 0 0
vt 0 0
vt 0 0
vt 0 0
vt 0 0
vt 0 0
vt 0 0
vt 0 0
vt 0 0
vt 0 0
vt 0 0
vt 0 0
vt 0 0
vt 0 0
vt 0 0
vt 0 0
vt 0 0
vt 0 0
vt 0 0
vt 0 0
vt 0 0
vt 0 0
vt 0 0
vt 0 0
vt 0 0
vt 0 0
vt 0 0
vt 0 0
vt 0 0
vt 0 0
vt 0 0
vt 0 0
vt 0 0
vt 0 0
vt 0 0
vt 0 0
vt 0 0
vt 0 0
vt 0 0
vt 0 0
vt 0 0
vt 0 0
vt 0 0
vt 0 0
vt 0 0
vt 0 0
vt 0 0
vt 0 0
vt 0 0
vt 0 0
vt 0 0
vt 0 0
vt 0 0
vt 0 0
vt 0 0
vt 0 0
vt 0 0
vt 0 0
vt 0 0
vt 0 0
vt 0 0
vt 0 0
vt 0 0
vt 0 0
vt 0 0
vt 0 0
vt 0 0
vt 0 0
vt 0 0
vt 0 0
vt 0 0
vt 0 0
vt 0 0
vt 0 0
vt 0 0
vt 0 0
vt 0 0
vt 0 0
vt 0 0
vt 0 0
vt 0 0
vt 0 0
vt 0 0
vt 0 0
vt 0 0
vt 0 0
vt 0 0
vt 0 0
vt 0 0
vt 0 0
vt 0 0
vt 0 0
vt 0 0
vt 0 0
vt 0 0
vt 0 0
vt 0 0
vt 0 0
vt 0 0
vt 0 0
vt 0 0
vt 0 0
vt 0 0
vt 0 0
vt 0 0
vt 0 0
vt 0 0
vt 0 0
vt 0 0
vt 0 0
vt 0 0
vt 0 0
vt 0 0
vt 0 0
vt 0 0
vt 0 0
vt 0 0
vt 0 0
vt 0 0
vt 0 0
vt 0 0
vt 0 0
vt 0 0
vt 0 0
vt 0 0
vt 0 0
vt 0 0
vt 0 0
vt 0 0
vt 0 0
vt 0 0
vt 0 0
vt 0 0
vt 0 0
vt 0 0
vt 0 0
vt 0 0
vt 0 0
vt 0 0
vt 0 0
vt 0 0
vt 0 0
vt 0 0
vt 0 0
vt 0 0
vt 0 0
vt 0 0
vt 0 0
vt 0 0
vt 0 0
vt 0 0
vt 0 0
vt 0 0
vt 0 0
vt 0 0
vt 0 0
vt 0 0
vt 0 0
vt 0 0
vt 0 0
vt 0 0
vt 0 0
vt 0 0
vt 0 0
vt 0 0
vt 0 0
vt 0 0
vt 0 0
vt 0 0
vt 0 0
vt 0 0
vt 0 0
vt 0 0
vt 0 0
vt 0 0
vt 0 0
vt 0 0
vt 0 0
vt 0 0
vt 0 0
vt 0 0
vt 0 0
vt 0 0
vt 0 0
vt 0 0
vt 0 0
vt 0 0
vt 0 0
vt 0 0
vt 0 0
vt 0 0
vt 0 0
vt 0 0
vt 0 0
vt 0 0
vt 0 0
vt 0 0
vt 0 0
vt 0 0
vt 0 0
vt 0 0
vt 0 0
vt 0 0
vt 0 0
vt 0 0
vt 0 0
vt 0 0
vt 0 0
vt 0 0
vt 0 0
vt 0 0
vt 0 0
vt 0 0
vt 0 0
vt 0 0
vt 0 0
vt 0 0
vt 0 0
vt 0 0
vt 0 0
vt 0 0
vt 0 0
vt 0 0
vt 0 0
vt 0 0
vt 0 0
vt 0 0
vt 0 0
vt 0 0
vt 0 0
vt 0 0
vt 0 0
vt 0 0
vt 0 0
vt 0 0
vt 0 0
vt 0 0
vt 0 0
vt 0 0
vt 0 0
vt 0 0
vt 0 0
vt 0 0
vt 0 0
vt 0 0
vt 0 0
vt 0 0
vt 0 0
vt 0 0
vt 0 0
vt 0 0
vt 0 0
vt 0 0
vt 0 0
vt 0 0
vt 0 0
vt 0 0
vt 0 0
vt 0 0
vt 0 0
vt 0 0
vt 0 0
vt 0 0
vt 0 0
vt 0 0
vt 0 0
vt 0 0
vt 0 0
vt 0 0
vt 0 0
vt 0 0
vt 0 0
vt 0 0
vt 0 0
vt 0 0
vt 0 0
vt 0 0
vt 0 0
vt 0 0
vt 0 0
vt 0 0
vt 0 0
vt 0 0
vt 0 0
vt 0 0
vt 0 0
vt 0 0
vt 0 0
vt 0 0
vt 0 0
vt 0 0
vt 0 0
vt 0 0
vt 0 0
vt 0 0
vt 0 0
vt 0 0
vt 0 0
vt 0 0
vt 0 0
vt 0 0
vt 0 0
vt 0 0
vt 0 0
vt 0 0
vt 0 0
vt 0 0
vt 0 0
vt 0 0
vt 0 0
vt 0 0
vt 0 0
vt 0 0
vt 0 0
vt 0 0
vt 0 0
vt 0 0
vt 0 0
vt 0 0
vt 0 0
vt 0 0
vt 0 0
vt 0 0
vt 0 0
vt 0 0
vt 0 0
vt 0 0
vt 0 0
vt 0 0
vt 0 0
vt 0 0
vt 0 0
vt 0 0
vt 0 0
vt 0 0
vt 0 0
vt 0 0
vt 0 0
vt 0 0
vt 0 0
vt 0 0
vt 0 0
vt 0 0
vt 0 0
vt 0 0
vt 0 0
vt 0 0
vt 0 0
vt 0 0
vt 0 0
vt 0 0
vt 0 0
vt 0 0
vt 0 0
vt 0 0
vt 0 0
vt 0 0
vt 0 0
vt 0 0
vt 0 0
vt 0 0
vt 0 0
vt 0 0
vt 0 0
vt 0 0
vt 0 0
vt 0 0
vt 0 0
vt 0 0
vt 0 0
vt 0 0
vt 0 0
vt 0 0
vt 0 0
vt 0 0
vt 0 0
vt 0 0
vt 0 0
vt 0 0
vt 0 0
vt 0 0
vt 0 0
vt 0 0
vt 0 0
vt 0 0
vt 0 0
vt 0 0
vt 0 0
vt 0 0
vt 0 0
vt 0 0
vt 0 0
vt 0 0
vt 0 0
vt 0 0
vt 0 0
vt 0 0
vt 0 0
vt 0 0
vt 0 0
vt 0 0
vt 0 0
vt 0 0
vt 0 0
vt 0 0
vt 0 0
vt 0 0
vt 0 0
vt 0 0
vt 0 0
vt 0 0
vt 0 0
vt 0 0
vt 0 0
vt 0 0
vt 0 0
vt 0 0
vt 0 0
vt 0 0
vt 0 0
vt 0 0
vt 0 0
vt 0 0
vt 0 0
vt 0 0
vt 0 0
vt 0 0
vt 0 0
vt 0 0
vt 0 0
vt 0 0
vt 0 0
vt 0 0
vt 0 0
vt 0 0
vt 0 0
vt 0 0
vt 0 0
vt 0 0
vt 0 0
vt 0 0
vt 0 0
vt 0 0
vt 0 0
vt 0 0
vt 0 0
vt 0 0
vt 0 0
vt 0 0
vt 0 0
vt 0 0
vt 0 0
vt 0 0
vt 0 0
vt 0 0
vt 0 0
vt 0 0
vt 0 0
vt 0 0
vt 0 0
vt 0 0
vt 0 0
vt 0 0
vt 0 0
vt 0 0
vt 0 0
vt 0 0
vt 0 0
vt 0 0
vt 0 0
vt 0 0
vt 0 0
vt 0 0
vt 0 0
vt 0 0
vt 0 0
vt 0 0
vt 0 0
vt 0 0
vt 0 0
vt 0 0
vt 0 0
vt 0 0
vt 0 0
vt 0 0
vt 0 0
vt 0 0
vt 0 0
vt 0 0
vt 0 0
vt 0 0
vt 0 0
vt 0 0
vt 0 0
vt 0 0
vt 0 0
vt 0 0
vt 0 0
vt 0 0
vt 0 0
vt 0 0
vt 0 0
vt 0 0
vt 0 0
vt 0 0
vt 0 0
vt 0 0
vt 0 0
vt 0 0
vt 0 0
vt 0 0
vt 0 0
vt 0 0
vt 0 0
vt 0 0
vt 0 0
vt 0 0
vt 0 0
vt 0 0
vt 0 0
vt 0 0
vt 0 0
vt 0 0
vt 0 0
vt 0 0
vt 0 0
vt 0 0
vt 0 0
vt 0 0
vt 0 0
vt 0 0
vt 0 0
vt 0 0
vt 0 0
vt 0 0
vt 0 0
vt 0 0
vt 0 0
vt 0 0
vt 0 0
vt 0 0
vt 0 0
vt 0 0
vt 0 0
vt 0 0
vt 0 0
vt 0 0
vt 0 0
vt 0 0
vt 0 0
vt 0 0
vt 0 0
vt 0 0
vt 0 0
vt 0 0
vt 0 0
vt 0 0
vt 0 0
vt 0 0
vt 0 0
vt 0 0
vt 0 0
vt 0 0
vt 0 0
vt 0 0
vt 0 0
vt 0 0
vt 0 0
vt 0 0
vt 0 0
vt 0 0
vt 0 0
vt 0 0
vt 0 0
vt 0 0
vt 0 0
vt 0 0
vt 0 0
vt 0 0
vt 0 0
vt 0 0
vt 0 0
vt 0 0
vt 0 0
vt 0 0
vt 0 0
vt 0 0
vt 0 0
vt 0 0
vt 0 0
vt 0 0
vt 0 0
vt 0 0
vt 0 0
vt 0 0
vt 0 0
vt 0 0
vt 0 0
vt 0 0
vt 0 0
vt 0 0
vt 0 0
vt 0 0
vt 0 0
vt 0 0
vt 0 0
vt 0 0
vt 0 0
vt 0 0
vt 0 0
vt 0 0
vt 0 0
vt 0 0
vt 0 0
vt 0 0
vt 0 0
vt 0 0
vt 0 0
vt 0 0
vt 0 0
vt 0 0
vt 0 0
vt 0 0
vt 0 0
vt 0 0
vt 0 0
vt 0 0
vt 0 0
vt 0 0
vt 0 0
vt 0 0
vt 0 0
vt 0 0
vt 0 0
vt 0 0
vt 0 0
vt 0 0
vt 0 0
vt 0 0
vt 0 0
vt 0 0
vt 0 0
vt 0 0
vt 0 0
vt 0 0
vt 0 0
vt 0 0
vt 0 0
vt 0 0
vt 0 0
vt 0 0
vt 0 0
vt 0 0
vt 0 0
vt 0 0
vt 0 0
vt 0 0
vt 0 0
vt 0 0
vt 0 0
vt 0 0
vt 0 0
vt 0 0
vt 0 0
vt 0 0
vt 0 0
vt 0 0
vt 0 0
vt 0 0
vt 0 0
vt 0 0
vt 0 0
vt 0 0
vt 0 0
vt 0 0
vt 0 0
vt 0 0
vt 0 0
vt 0 0
vt 0 0
vt 0 0
vt 0 0
vt 0 0
vt 0 0
vt 0 0
vt 0 0
vt 0 0
vt 0 0
vt 0 0
vt 0 0
vt 0 0
vt 0 0
vt 0 0
vt 0 0
vt 0 0
vt 0 0
vt 0 0
vt 0 0
vt 0 0
vt 0 0
vt 0 0
vt 0 0
vt 0 0
vt 0 0
vt 0 0
vt 0 0
vt 0 0
vt 0 0
vt 0 0
vt 0 0
vt 0 0
vt 0 0
vt 0 0
vt 0 0
vt 0 0
vt 0 0
vt 0 0
vt 0 0
vt 0 0
vt 0 0
vt 0 0
vt 0 0
vt 0 0
vt 0 0
vt 0 0
vt 0 0
vt 0 0
vt 0 0
vt 0 0
vt 0 0
vt 0 0
vt 0 0
vt 0 0
vt 0 0
vt 0 0
vt 0 0
vt 0 0
vt 0 0
vt 0 0
vt 0 0
vt 0 0
vt 0 0
vt 0 0
vt 0 0
vt 0 0
vt 0 0
vt 0 0
vt 0 0
vt 0 0
vt 0 0
vt 0 0
vt 0 0
vt 0 0
vt 0 0
vt 0 0
vt 0 0
vt 0 0
vt 0 0
vt 0 0
vt 0 0
vt 0 0
vt 0 0
vt 0 0
vt 0 0
vt 0 0
vt 0 0
vt 0 0
vt 0 0
vt 0 0
vt 0 0
vt 0 0
vt 0 0
vt 0 0
vt 0 0
vt 0 0
vt 0 0
vt 0 0
vt 0 0
vt 0 0
vt 0 0
vt 0 0
vt 0 0
vt 0 0
vt 0 0
vt 0 0
vt 0 0
vt 0 0
vt 0 0
vt 0 0
vt 0 0
vt 0 0
vt 0 0
vt 0 0
vt 0 0
vt 0 0
vt 0 0
vt 0 0
vt 0 0
vt 0 0
vt 0 0
vt 0 0
vt 0 0
vt 0 0
vt 0 0
vt 0 0
vt 0 0
vt 0 0
vt 0 0
vt 0 0
vt 0 0
vt 0 0
vt 0 0
vt 0 0
vt 0 0
vt 0 0
vt 0 0
vt 0 0
vt 0 0
vt 0 0
vt 0 0
vt 0 0
vt 0 0
vt 0 0
vt 0 0
vt 0 0
vt 0 0
vt 0 0
vt 0 0
vt 0 0
vt 0 0
vt 0 0
vt 0 0
vt 0 0
vt 0 0
vt 0 0
vt 0 0
vt 0 0
vt 0 0
vt 0 0
vt 0 0
vt 0 0
vt 0 0
vt 0 0
vt 0 0
vt 0 0
vt 0 0
vt 0 0
vt 0 0
vt 0 0
vt 0 0
vt 0 0
vt 0 0
vt 0 0
vt 0 0
vt 0 0
vt 0 0
vt 0 0
vt 0 0
vt 0 0
vt 0 0
vt 0 0
vt 0 0
vt 0 0
vt 0 0
vt 0 0
vt 0 0
vt 0 0
vt 0 0
vt 0 0
vt 0 0
vt 0 0
vt 0 0
vt 0 0
vt 0 0
vt 0 0
vt 0 0
vt 0 0
vt 0 0
vt 0 0
vt 0 0
vt 0 0
vt 0 0
vt 0 0
vt 0 0
vt 0 0
vt 0 0
vt 0 0
vt 0 0
vt 0 0
vt 0 0
vt 0 0
vt 0 0
vt 0 0
vt 0 0
vt 0 0
vt 0 0
vt 0 0
vt 0 0
vt 0 0
vt 0 0
vt 0 0
vt 0 0
vt 0 0
vt 0 0
vt 0 0
vt 0 0
vt 0 0
vt 0 0
vt 0 0
vt 0 0
vt 0 0
vt 0 0
vt 0 0
vt 0 0
vt 0 0
vt 0 0
vt 0 0
vt 0 0
vt 0 0
vt 0 0
vt 0 0
vt 0 0
vt 0 0
vt 0 0
vt 0 0
vt 0 0
vt 0 0
vt 0 0
vt 0 0
vt 0 0
vt 0 0
vt 0 0
vt 0 0
vt 0 0
vt 0 0
vt 0 0
vt 0 0
vt 0 0
vt 0 0
vt 0 0
vt 0 0
vt 0 0
vt 0 0
vt 0 0
vt 0 0
vt 0 0
vt 0 0
vt 0 0
vt 0 0
vt 0 0
vt 0 0
vt 0 0
vt 0 0
vt 0 0
vt 0 0
vt 0 0
vt 0 0
vt 0 0
vt 0 0
vt 0 0
vt 0 0
vt 0 0
vt 0 0
vt 0 0
vt 0 0
vt 0 0
vt 0 0
vt 0 0
vt 0 0
vt 0 0
vt 0 0
vt 0 0
vt 0 0
vt 0 0
vt 0 0
vt 0 0
vt 0 0
vt 0 0
vt 0 0
vt 0 0
vt 0 0
vt 0 0
vt 0 0
vt 0 0
vt 0 0
vt 0 0
vt 0 0
vt 0 0
vt 0 0
vt 0 0
vt 0 0
vt 0 0
vt 0 0
vt 0 0
vt 0 0
vt 0 0
vt 0 0
vt 0 0
vt 0 0
vt 0 0
vt 0 0
vt 0 0
vt 0 0
vt 0 0
vt 0 0
vt 0 0
vt 0 0
vt 0 0
vt 0 0
vt 0 0
vt 0 0
vt 0 0
vt 0 0
vt 0 0
vt 0 0
vt 0 0
vt 0 0
vt 0 0
vt 0 0
vt 0 0
vt 0 0
vt 0 0
vt 0 0
vt 0 0

f 3/1/3 2/1/2 1/1/1
f 3/1/3 5/1/5 4/1/4
f 2/1/2 3/1/3 4/1/4
f 4/1/4 5/1/5 6/1/6
f 7/1/7 3/1/3 1/1/1
f 8/1/8 7/1/7 1/1/1
f 5/1/5 3/1/3 9/1/9
f 9/1/9 3/1/3 7/1/7
f 10/1/10 6/1/6 5/1/5
f 9/1/9 10/1/10 5/1/5
f 7/1/7 8/1/8 11/1/11
f 9/1/9 7/1/7 11/1/11
f 12/1/12 9/1/9 11/1/11
f 10/1/10 9/1/9 12/1/12
f 15/1/15 14/1/14 13/1/13
f 15/1/15 17/1/17 16/1/16
f 14/1/14 15/1/15 16/1/16
f 17/1/17 19/1/19 18/1/18
f 16/1/16 17/1/17 18/1/18
f 18/1/18 19/1/19 20/1/20
f 21/1/21 15/1/15 13/1/13
f 22/1/22 21/1/21 13/1/13
f 2/1/2 21/1/21 1/1/1
f 2/1/2 17/1/17 21/1/21
f 17/1/17 15/1/15 21/1/21
f 4/1/4 17/1/17 2/1/2
f 19/1/19 17/1/17 4/1/4
f 19/1/19 4/1/4 6/1/6
f 19/1/19 6/1/6 20/1/20
f 20/1/20 6/1/6 23/1/23
f 24/1/24 21/1/21 22/1/22
f 25/1/25 24/1/24 22/1/22
f 1/1/1 24/1/24 8/1/8
f 21/1/21 24/1/24 1/1/1
f 6/1/6 10/1/10 23/1/23
f 23/1/23 10/1/10 26/1/26
f 24/1/24 25/1/25 27/1/27
f 8/1/8 24/1/24 27/1/27
f 8/1/8 27/1/27 11/1/11
f 11/1/11 27/1/27 28/1/28
f 30/1/30 28/1/28 29/1/29
f 30/1/30 12/1/12 28/1/28
f 12/1/12 11/1/11 28/1/28
f 12/1/12 30/1/30 31/1/31
f 12/1/12 31/1/31 10/1/10
f 10/1/10 31/1/31 26/1/26
f 30/1/30 29/1/29 32/1/32
f 31/1/31 30/1/30 32/1/32
f 35/1/35 34/1/34 33/1/33
f 35/1/35 37/1/37 36/1/36
f 34/1/34 35/1/35 36/1/36
f 37/1/37 39/1/39 38/1/38
f 36/1/36 37/1/37 38/1/38
f 38/1/38 39/1/39 40/1/40
f 14/1/14 42/1/42 41/1/41
f 13/1/13 14/1/14 41/1/41
f 16/1/16 43/1/43 14/1/14
f 14/1/14 43/1/43 42/1/42
f 33/1/33 18/1/18 35/1/35
f 33/1/33 43/1/43 18/1/18
f 43/1/43 16/1/16 18/1/18
f 20/1/20 35/1/35 18/1/18
f 20/1/20 44/1/44 35/1/35
f 44/1/44 37/1/37 35/1/35
f 39/1/39 37/1/37 45/1/45
f 45/1/45 37/1/37 44/1/44
f 46/1/46 40/1/40 39/1/39
f 45/1/45 46/1/46 39/1/39
f 13/1/13 41/1/41 22/1/22
f 41/1/41 47/1/47 22/1/22
f 44/1/44 23/1/23 48/1/48
f 20/1/20 23/1/23 44/1/44
f 45/1/45 44/1/44 49/1/49
f 49/1/49 44/1/44 48/1/48
f 50/1/50 46/1/46 45/1/45
f 50/1/50 45/1/45 51/1/51
f 51/1/51 45/1/45 49/1/49
f 50/1/50 51/1/51 52/1/52
f 22/1/22 47/1/47 25/1/25
f 47/1/47 53/1/53 25/1/25
f 48/1/48 26/1/26 54/1/54
f 23/1/23 26/1/26 48/1/48
f 49/1/49 48/1/48 55/1/55
f 55/1/55 48/1/48 54/1/54
f 57/1/57 56/1/56 51/1/51
f 57/1/57 51/1/51 55/1/55
f 55/1/55 51/1/51 49/1/49
f 52/1/52 51/1/51 56/1/56
f 25/1/25 53/1/53 58/1/58
f 27/1/27 25/1/25 58/1/58
f 60/1/60 58/1/58 59/1/59
f 60/1/60 28/1/28 58/1/58
f 28/1/28 27/1/27 58/1/58
f 28/1/28 60/1/60 29/1/29
f 54/1/54 31/1/31 61/1/61
f 26/1/26 31/1/31 54/1/54
f 55/1/55 54/1/54 62/1/62
f 62/1/62 54/1/54 61/1/61
f 63/1/63 57/1/57 55/1/55
f 62/1/62 63/1/63 55/1/55
f 64/1/64 60/1/60 59/1/59
f 65/1/65 64/1/64 59/1/59
f 29/1/29 66/1/66 32/1/32
f 29/1/29 60/1/60 66/1/66
f 60/1/60 64/1/64 66/1/66
f 32/1/32 61/1/61 31/1/31
f 32/1/32 66/1/66 61/1/61
f 66/1/66 67/1/67 61/1/61
f 62/1/62 61/1/61 68/1/68
f 68/1/68 61/1/61 67/1/67
f 69/1/69 63/1/63 62/1/62
f 68/1/68 69/1/69 62/1/62
f 64/1/64 65/1/65 70/1/70
f 66/1/66 64/1/64 70/1/70
f 71/1/71 66/1/66 70/1/70
f 67/1/67 66/1/66 71/1/71
f 72/1/72 67/1/67 71/1/71
f 68/1/68 67/1/67 72/1/72
f 73/1/73 68/1/68 72/1/72
f 69/1/69 68/1/68 73/1/73
f 76/1/76 75/1/75 74/1/74
f 76/1/76 33/1/33 34/1/34
f 76/1/76 34/1/34 75/1/75
f 75/1/75 34/1/34 77/1/77
f 36/1/36 78/1/78 34/1/34
f 34/1/34 78/1/78 77/1/77
f 38/1/38 79/1/79 36/1/36
f 36/1/36 79/1/79 78/1/78
f 79/1/79 38/1/38 40/1/40
f 80/1/80 79/1/79 40/1/40
f 42/1/42 82/1/82 81/1/81
f 41/1/41 42/1/42 81/1/81
f 74/1/74 43/1/43 76/1/76
f 74/1/74 82/1/82 43/1/43
f 82/1/82 42/1/42 43/1/43
f 33/1/33 76/1/76 43/1/43
f 84/1/84 46/1/46 83/1/83
f 84/1/84 80/1/80 46/1/46
f 80/1/80 40/1/40 46/1/46
f 84/1/84 83/1/83 85/1/85
f 41/1/41 81/1/81 47/1/47
f 81/1/81 86/1/86 47/1/47
f 46/1/46 50/1/50 83/1/83
f 52/1/52 88/1/88 87/1/87
f 50/1/50 52/1/52 87/1/87
f 50/1/50 87/1/87 85/1/85
f 50/1/50 85/1/85 83/1/83
f 87/1/87 88/1/88 89/1/89
f 47/1/47 86/1/86 53/1/53
f 86/1/86 90/1/90 53/1/53
f 56/1/56 57/1/57 91/1/91
f 56/1/56 91/1/91 92/1/92
f 52/1/52 56/1/56 92/1/92
f 52/1/52 92/1/92 93/1/93
f 52/1/52 93/1/93 88/1/88
f 89/1/89 88/1/88 93/1/93
f 94/1/94 58/1/58 53/1/53
f 94/1/94 53/1/53 95/1/95
f 95/1/95 53/1/53 90/1/90
f 58/1/58 94/1/94 59/1/59
f 91/1/91 63/1/63 96/1/96
f 57/1/57 63/1/63 91/1/91
f 97/1/97 92/1/92 91/1/91
f 96/1/96 97/1/97 91/1/91
f 94/1/94 95/1/95 98/1/98
f 98/1/98 59/1/59 94/1/94
f 98/1/98 99/1/99 59/1/59
f 99/1/99 65/1/65 59/1/59
f 96/1/96 101/1/101 100/1/100
f 96/1/96 63/1/63 101/1/101
f 63/1/63 69/1/69 101/1/101
f 97/1/97 96/1/96 100/1/100
f 65/1/65 99/1/99 102/1/102
f 70/1/70 65/1/65 102/1/102
f 71/1/71 70/1/70 103/1/103
f 70/1/70 102/1/102 103/1/103
f 72/1/72 71/1/71 104/1/104
f 71/1/71 103/1/103 104/1/104
f 73/1/73 72/1/72 105/1/105
f 72/1/72 104/1/104 105/1/105
f 101/1/101 69/1/69 73/1/73
f 105/1/105 101/1/101 73/1/73
f 108/1/108 107/1/107 106/1/106
f 108/1/108 110/1/110 109/1/109
f 107/1/107 108/1/108 109/1/109
f 109/1/109 110/1/110 111/1/111
f 75/1/75 113/1/113 112/1/112
f 74/1/74 75/1/75 112/1/112
f 77/1/77 114/1/114 75/1/75
f 75/1/75 114/1/114 113/1/113
f 106/1/106 78/1/78 108/1/108
f 106/1/106 114/1/114 78/1/78
f 114/1/114 77/1/77 78/1/78
f 79/1/79 108/1/108 78/1/78
f 110/1/110 108/1/108 79/1/79
f 80/1/80 116/1/116 115/1/115
f 79/1/79 80/1/80 115/1/115
f 79/1/79 115/1/115 111/1/111
f 79/1/79 111/1/111 110/1/110
f 115/1/115 116/1/116 117/1/117
f 82/1/82 119/1/119 118/1/118
f 81/1/81 82/1/82 118/1/118
f 112/1/112 82/1/82 74/1/74
f 119/1/119 82/1/82 112/1/112
f 80/1/80 84/1/84 116/1/116
f 85/1/85 121/1/121 120/1/120
f 84/1/84 85/1/85 120/1/120
f 84/1/84 120/1/120 117/1/117
f 84/1/84 117/1/117 116/1/116
f 120/1/120 121/1/121 122/1/122
f 81/1/81 118/1/118 86/1/86
f 118/1/118 123/1/123 86/1/86
f 85/1/85 87/1/87 121/1/121
f 89/1/89 125/1/125 124/1/124
f 87/1/87 89/1/89 124/1/124
f 87/1/87 124/1/124 122/1/122
f 87/1/87 122/1/122 121/1/121
f 124/1/124 125/1/125 126/1/126
f 86/1/86 123/1/123 90/1/90
f 123/1/123 127/1/127 90/1/90
f 93/1/93 92/1/92 128/1/128
f 93/1/93 125/1/125 89/1/89
f 93/1/93 128/1/128 125/1/125
f 128/1/128 129/1/129 125/1/125
f 130/1/130 126/1/126 125/1/125
f 129/1/129 130/1/130 125/1/125
f 90/1/90 127/1/127 95/1/95
f 127/1/127 131/1/131 95/1/95
f 128/1/128 97/1/97 132/1/132
f 92/1/92 97/1/97 128/1/128
f 129/1/129 128/1/128 133/1/133
f 133/1/133 128/1/128 132/1/132
f 134/1/134 130/1/130 129/1/129
f 133/1/133 134/1/134 129/1/129
f 95/1/95 131/1/131 135/1/135
f 98/1/98 95/1/95 135/1/135
f 135/1/135 99/1/99 98/1/98
f 136/1/136 99/1/99 135/1/135
f 100/1/100 101/1/101 137/1/137
f 100/1/100 132/1/132 97/1/97
f 100/1/100 137/1/137 132/1/132
f 137/1/137 138/1/138 132/1/132
f 140/1/140 139/1/139 133/1/133
f 140/1/140 133/1/133 138/1/138
f 138/1/138 133/1/133 132/1/132
f 134/1/134 133/1/133 139/1/139
f 99/1/99 136/1/136 141/1/141
f 102/1/102 99/1/99 141/1/141
f 103/1/103 102/1/102 142/1/142
f 102/1/102 141/1/141 142/1/142
f 104/1/104 103/1/103 143/1/143
f 103/1/103 142/1/142 143/1/143
f 105/1/105 104/1/104 144/1/144
f 104/1/104 143/1/143 144/1/144
f 137/1/137 101/1/101 105/1/105
f 137/1/137 105/1/105 145/1/145
f 145/1/145 105/1/105 144/1/144
f 138/1/138 137/1/137 145/1/145
f 146/1/146 138/1/138 145/1/145
f 140/1/140 138/1/138 146/1/146
f 149/1/149 148/1/148 147/1/147
f 149/1/149 106/1/106 107/1/107
f 149/1/149 107/1/107 148/1/148
f 148/1/148 107/1/107 150/1/150
f 109/1/109 151/1/151 107/1/107
f 107/1/107 151/1/151 150/1/150
f 151/1/151 109/1/109 111/1/111
f 152/1/152 151/1/151 111/1/111
f 113/1/113 154/1/154 153/1/153
f 112/1/112 113/1/113 153/1/153
f 147/1/147 114/1/114 149/1/149
f 147/1/147 154/1/154 114/1/114
f 154/1/154 113/1/113 114/1/114
f 106/1/106 149/1/149 114/1/114
f 111/1/111 155/1/155 152/1/152
f 115/1/115 155/1/155 111/1/111
f 155/1/155 115/1/115 117/1/117
f 156/1/156 155/1/155 117/1/117
f 119/1/119 158/1/158 157/1/157
f 118/1/118 119/1/119 157/1/157
f 153/1/153 119/1/119 112/1/112
f 158/1/158 119/1/119 153/1/153
f 117/1/117 159/1/159 156/1/156
f 120/1/120 159/1/159 117/1/117
f 159/1/159 120/1/120 122/1/122
f 160/1/160 159/1/159 122/1/122
f 118/1/118 157/1/157 123/1/123
f 157/1/157 161/1/161 123/1/123
f 122/1/122 162/1/162 160/1/160
f 124/1/124 162/1/162 122/1/122
f 162/1/162 124/1/124 126/1/126
f 163/1/163 162/1/162 126/1/126
f 123/1/123 161/1/161 127/1/127
f 161/1/161 164/1/164 127/1/127
f 126/1/126 130/1/130 163/1/163
f 163/1/163 130/1/130 165/1/165
f 127/1/127 164/1/164 131/1/131
f 164/1/164 166/1/166 131/1/131
f 130/1/130 134/1/134 165/1/165
f 165/1/165 134/1/134 167/1/167
f 168/1/168 135/1/135 131/1/131
f 168/1/168 131/1/131 169/1/169
f 169/1/169 131/1/131 166/1/166
f 135/1/135 168/1/168 136/1/136
f 139/1/139 171/1/171 170/1/170
f 140/1/140 171/1/171 139/1/139
f 167/1/167 134/1/134 139/1/139
f 170/1/170 167/1/167 139/1/139
f 168/1/168 169/1/169 172/1/172
f 136/1/136 168/1/168 172/1/172
f 136/1/136 172/1/172 141/1/141
f 141/1/141 172/1/172 173/1/173
f 175/1/175 173/1/173 174/1/174
f 175/1/175 142/1/142 173/1/173
f 142/1/142 141/1/141 173/1/173
f 142/1/142 176/1/176 143/1/143
f 175/1/175 176/1/176 142/1/142
f 143/1/143 177/1/177 144/1/144
f 176/1/176 177/1/177 143/1/143
f 144/1/144 178/1/178 145/1/145
f 177/1/177 178/1/178 144/1/144
f 179/1/179 145/1/145 178/1/178
f 179/1/179 180/1/180 145/1/145
f 180/1/180 146/1/146 145/1/145
f 171/1/171 140/1/140 146/1/146
f 180/1/180 171/1/171 146/1/146
f 175/1/175 174/1/174 181/1/181
f 176/1/176 175/1/175 181/1/181
f 182/1/182 176/1/176 181/1/181
f 177/1/177 176/1/176 182/1/182
f 183/1/183 177/1/177 182/1/182
f 178/1/178 177/1/177 183/1/183
f 184/1/184 178/1/178 183/1/183
f 179/1/179 178/1/178 184/1/184
f 148/1/148 185/1/185 147/1/147
f 186/1/186 185/1/185 148/1/148
f 186/1/186 148/1/148 187/1/187
f 187/1/187 148/1/148 150/1/150
f 151/1/151 188/1/188 150/1/150
f 150/1/150 188/1/188 187/1/187
f 188/1/188 151/1/151 152/1/152
f 189/1/189 188/1/188 152/1/152
f 154/1/154 191/1/191 190/1/190
f 153/1/153 154/1/154 190/1/190
f 185/1/185 154/1/154 147/1/147
f 185/1/185 192/1/192 154/1/154
f 192/1/192 191/1/191 154/1/154
f 186/1/186 192/1/192 185/1/185
f 152/1/152 193/1/193 189/1/189
f 155/1/155 193/1/193 152/1/152
f 193/1/193 155/1/155 156/1/156
f 194/1/194 193/1/193 156/1/156
f 158/1/158 195/1/195 157/1/157
f 158/1/158 196/1/196 195/1/195
f 158/1/158 153/1/153 196/1/196
f 153/1/153 190/1/190 196/1/196
f 156/1/156 197/1/197 194/1/194
f 159/1/159 197/1/197 156/1/156
f 197/1/197 159/1/159 160/1/160
f 198/1/198 197/1/197 160/1/160
f 195/1/195 200/1/200 199/1/199
f 195/1/195 199/1/199 157/1/157
f 157/1/157 199/1/199 161/1/161
f 196/1/196 200/1/200 195/1/195
f 160/1/160 201/1/201 198/1/198
f 162/1/162 201/1/201 160/1/160
f 201/1/201 162/1/162 163/1/163
f 202/1/202 201/1/201 163/1/163
f 161/1/161 199/1/199 164/1/164
f 199/1/199 203/1/203 164/1/164
f 163/1/163 165/1/165 202/1/202
f 202/1/202 165/1/165 204/1/204
f 206/1/206 205/1/205 166/1/166
f 206/1/206 166/1/166 203/1/203
f 203/1/203 166/1/166 164/1/164
f 206/1/206 207/1/207 205/1/205
f 165/1/165 167/1/167 204/1/204
f 204/1/204 167/1/167 208/1/208
f 205/1/205 209/1/209 169/1/169
f 166/1/166 205/1/205 169/1/169
f 210/1/210 205/1/205 207/1/207
f 209/1/209 205/1/205 210/1/210
f 170/1/170 212/1/212 211/1/211
f 171/1/171 212/1/212 170/1/170
f 208/1/208 167/1/167 170/1/170
f 211/1/211 208/1/208 170/1/170
f 169/1/169 209/1/209 172/1/172
f 209/1/209 210/1/210 213/1/213
f 209/1/209 213/1/213 172/1/172
f 172/1/172 213/1/213 173/1/173
f 213/1/213 174/1/174 173/1/173
f 214/1/214 174/1/174 213/1/213
f 180/1/180 216/1/216 215/1/215
f 179/1/179 216/1/216 180/1/180
f 212/1/212 171/1/171 180/1/180
f 215/1/215 212/1/212 180/1/180
f 174/1/174 214/1/214 217/1/217
f 181/1/181 174/1/174 217/1/217
f 182/1/182 181/1/181 218/1/218
f 181/1/181 217/1/217 218/1/218
f 183/1/183 182/1/182 219/1/219
f 182/1/182 218/1/218 219/1/219
f 184/1/184 183/1/183 220/1/220
f 183/1/183 219/1/219 220/1/220
f 216/1/216 179/1/179 184/1/184
f 220/1/220 216/1/216 184/1/184
f 187/1/187 221/1/221 186/1/186
f 187/1/187 188/1/188 222/1/222
f 221/1/221 187/1/187 222/1/222
f 188/1/188 189/1/189 222/1/222
f 191/1/191 224/1/224 223/1/223
f 190/1/190 191/1/191 223/1/223
f 192/1/192 225/1/225 191/1/191
f 191/1/191 225/1/225 224/1/224
f 221/1/221 192/1/192 186/1/186
f 221/1/221 226/1/226 192/1/192
f 226/1/226 225/1/225 192/1/192
f 222/1/222 226/1/226 221/1/221
f 227/1/227 226/1/226 222/1/222
f 189/1/189 227/1/227 222/1/222
f 189/1/189 193/1/193 227/1/227
f 193/1/193 228/1/228 227/1/227
f 228/1/228 193/1/193 194/1/194
f 229/1/229 228/1/228 194/1/194
f 190/1/190 223/1/223 196/1/196
f 223/1/223 230/1/230 196/1/196
f 194/1/194 231/1/231 229/1/229
f 197/1/197 231/1/231 194/1/194
f 231/1/231 197/1/197 198/1/198
f 232/1/232 231/1/231 198/1/198
f 200/1/200 234/1/234 233/1/233
f 199/1/199 200/1/200 233/1/233
f 230/1/230 200/1/200 196/1/196
f 234/1/234 200/1/200 230/1/230
f 198/1/198 235/1/235 232/1/232
f 201/1/201 235/1/235 198/1/198
f 235/1/235 201/1/201 202/1/202
f 236/1/236 235/1/235 202/1/202
f 238/1/238 237/1/237 203/1/203
f 238/1/238 203/1/203 233/1/233
f 233/1/233 203/1/203 199/1/199
f 238/1/238 239/1/239 237/1/237
f 202/1/202 204/1/204 236/1/236
f 236/1/236 204/1/204 240/1/240
f 203/1/203 237/1/237 206/1/206
f 237/1/237 207/1/207 206/1/206
f 237/1/237 239/1/239 207/1/207
f 239/1/239 241/1/241 207/1/207
f 204/1/204 208/1/208 240/1/240
f 240/1/240 208/1/208 242/1/242
f 207/1/207 241/1/241 210/1/210
f 241/1/241 243/1/243 210/1/210
f 211/1/211 245/1/245 244/1/244
f 212/1/212 245/1/245 211/1/211
f 242/1/242 208/1/208 211/1/211
f 244/1/244 242/1/242 211/1/211
f 210/1/210 243/1/243 246/1/246
f 213/1/213 210/1/210 246/1/246
f 246/1/246 214/1/214 213/1/213
f 247/1/247 214/1/214 246/1/246
f 215/1/215 249/1/249 248/1/248
f 216/1/216 249/1/249 215/1/215
f 245/1/245 212/1/212 215/1/215
f 248/1/248 245/1/245 215/1/215
f 214/1/214 247/1/247 250/1/250
f 217/1/217 214/1/214 250/1/250
f 218/1/218 217/1/217 251/1/251
f 217/1/217 250/1/250 251/1/251
f 219/1/219 218/1/218 252/1/252
f 218/1/218 251/1/251 252/1/252
f 220/1/220 219/1/219 253/1/253
f 219/1/219 252/1/252 253/1/253
f 249/1/249 216/1/216 220/1/220
f 253/1/253 249/1/249 220/1/220
f 224/1/224 254/1/254 223/1/223
f 255/1/255 254/1/254 224/1/224
f 255/1/255 224/1/224 256/1/256
f 256/1/256 224/1/224 225/1/225
f 226/1/226 257/1/257 225/1/225
f 225/1/225 257/1/257 256/1/256
f 227/1/227 258/1/258 226/1/226
f 226/1/226 258/1/258 257/1/257
f 228/1/228 259/1/259 227/1/227
f 227/1/227 259/1/259 258/1/258
f 259/1/259 228/1/228 229/1/229
f 260/1/260 259/1/259 229/1/229
f 254/1/254 262/1/262 261/1/261
f 254/1/254 261/1/261 223/1/223
f 223/1/223 261/1/261 230/1/230
f 255/1/255 262/1/262 254/1/254
f 229/1/229 263/1/263 260/1/260
f 231/1/231 263/1/263 229/1/229
f 263/1/263 231/1/231 232/1/232
f 264/1/264 263/1/263 232/1/232
f 234/1/234 265/1/265 233/1/233
f 234/1/234 266/1/266 265/1/265
f 234/1/234 230/1/230 266/1/266
f 230/1/230 261/1/261 266/1/266
f 232/1/232 267/1/267 264/1/264
f 235/1/235 267/1/267 232/1/232
f 267/1/267 235/1/235 236/1/236
f 268/1/268 267/1/267 236/1/236
f 233/1/233 265/1/265 238/1/238
f 265/1/265 239/1/239 238/1/238
f 265/1/265 266/1/266 239/1/239
f 266/1/266 269/1/269 239/1/239
f 236/1/236 240/1/240 268/1/268
f 268/1/268 240/1/240 270/1/270
f 239/1/239 269/1/269 241/1/241
f 269/1/269 271/1/271 241/1/241
f 240/1/240 242/1/242 270/1/270
f 270/1/270 242/1/242 272/1/272
f 241/1/241 271/1/271 243/1/243
f 271/1/271 273/1/273 243/1/243
f 244/1/244 275/1/275 274/1/274
f 245/1/245 275/1/275 244/1/244
f 272/1/272 242/1/242 244/1/244
f 274/1/274 272/1/272 244/1/244
f 243/1/243 273/1/273 276/1/276
f 246/1/246 243/1/243 276/1/276
f 247/1/247 278/1/278 277/1/277
f 247/1/247 246/1/246 278/1/278
f 246/1/246 276/1/276 278/1/278
f 277/1/277 280/1/280 279/1/279
f 278/1/278 280/1/280 277/1/277
f 279/1/279 282/1/282 281/1/281
f 280/1/280 282/1/282 279/1/279
f 281/1/281 284/1/284 283/1/283
f 282/1/282 284/1/284 281/1/281
f 283/1/283 248/1/248 249/1/249
f 283/1/283 284/1/284 248/1/248
f 284/1/284 285/1/285 248/1/248
f 275/1/275 245/1/245 248/1/248
f 285/1/285 275/1/275 248/1/248
f 247/1/247 277/1/277 250/1/250
f 251/1/251 250/1/250 277/1/277
f 279/1/279 251/1/251 277/1/277
f 252/1/252 251/1/251 279/1/279
f 281/1/281 252/1/252 279/1/279
f 253/1/253 252/1/252 281/1/281
f 283/1/283 253/1/253 281/1/281
f 249/1/249 253/1/253 283/1/283
f 256/1/256 286/1/286 255/1/255
f 256/1/256 257/1/257 287/1/287
f 286/1/286 256/1/256 287/1/287
f 288/1/288 287/1/287 257/1/257
f 288/1/288 257/1/257 289/1/289
f 289/1/289 257/1/257 258/1/258
f 291/1/291 290/1/290 289/1/289
f 291/1/291 289/1/289 259/1/259
f 259/1/259 289/1/289 258/1/258
f 259/1/259 260/1/260 291/1/291
f 262/1/262 292/1/292 261/1/261
f 262/1/262 255/1/255 286/1/286
f 262/1/262 286/1/286 292/1/292
f 292/1/292 286/1/286 293/1/293
f 295/1/295 287/1/287 294/1/294
f 295/1/295 293/1/293 287/1/287
f 293/1/293 286/1/286 287/1/287
f 288/1/288 294/1/294 287/1/287
f 291/1/291 296/1/296 290/1/290
f 298/1/298 297/1/297 296/1/296
f 263/1/263 298/1/298 296/1/296
f 263/1/263 296/1/296 291/1/291
f 263/1/263 291/1/291 260/1/260
f 263/1/263 264/1/264 298/1/298
f 292/1/292 299/1/299 266/1/266
f 261/1/261 292/1/292 266/1/266
f 293/1/293 300/1/300 292/1/292
f 300/1/300 299/1/299 292/1/292
f 301/1/301 293/1/293 295/1/295
f 300/1/300 293/1/293 301/1/301
f 302/1/302 297/1/297 298/1/298
f 303/1/303 297/1/297 302/1/302
f 264/1/264 267/1/267 304/1/304
f 264/1/264 304/1/304 298/1/298
f 298/1/298 304/1/304 302/1/302
f 267/1/267 268/1/268 304/1/304
f 299/1/299 305/1/305 269/1/269
f 266/1/266 299/1/299 269/1/269
f 300/1/300 306/1/306 299/1/299
f 306/1/306 305/1/305 299/1/299
f 307/1/307 300/1/300 301/1/301
f 306/1/306 300/1/300 307/1/307
f 310/1/310 309/1/309 308/1/308
f 303/1/303 310/1/310 308/1/308
f 303/1/303 302/1/302 310/1/310
f 302/1/302 311/1/311 310/1/310
f 304/1/304 312/1/312 302/1/302
f 312/1/312 311/1/311 302/1/302
f 268/1/268 270/1/270 312/1/312
f 304/1/304 268/1/268 312/1/312
f 305/1/305 313/1/313 271/1/271
f 269/1/269 305/1/305 271/1/271
f 306/1/306 314/1/314 305/1/305
f 314/1/314 313/1/313 305/1/305
f 315/1/315 306/1/306 307/1/307
f 315/1/315 316/1/316 306/1/306
f 316/1/316 314/1/314 306/1/306
f 316/1/316 318/1/318 317/1/317
f 315/1/315 318/1/318 316/1/316
f 309/1/309 317/1/317 318/1/318
f 309/1/309 310/1/310 317/1/317
f 310/1/310 319/1/319 317/1/317
f 311/1/311 320/1/320 310/1/310
f 320/1/320 319/1/319 310/1/310
f 312/1/312 321/1/321 311/1/311
f 321/1/321 320/1/320 311/1/311
f 270/1/270 272/1/272 321/1/321
f 312/1/312 270/1/270 321/1/321
f 313/1/313 322/1/322 273/1/273
f 271/1/271 313/1/313 273/1/273
f 314/1/314 323/1/323 313/1/313
f 323/1/323 322/1/322 313/1/313
f 316/1/316 324/1/324 314/1/314
f 324/1/324 323/1/323 314/1/314
f 317/1/317 325/1/325 316/1/316
f 325/1/325 324/1/324 316/1/316
f 319/1/319 326/1/326 317/1/317
f 326/1/326 325/1/325 317/1/317
f 320/1/320 327/1/327 319/1/319
f 327/1/327 326/1/326 319/1/319
f 274/1/274 275/1/275 327/1/327
f 274/1/274 327/1/327 321/1/321
f 321/1/321 327/1/327 320/1/320
f 272/1/272 274/1/274 321/1/321
f 273/1/273 322/1/322 276/1/276
f 278/1/278 276/1/276 322/1/322
f 323/1/323 278/1/278 322/1/322
f 280/1/280 278/1/278 323/1/323
f 324/1/324 280/1/280 323/1/323
f 282/1/282 280/1/280 324/1/324
f 325/1/325 282/1/282 324/1/324
f 284/1/284 282/1/282 325/1/325
f 326/1/326 284/1/284 325/1/325
f 285/1/285 284/1/284 326/1/326
f 327/1/327 285/1/285 326/1/326
f 275/1/275 285/1/285 327/1/327
f 289/1/289 328/1/328 288/1/288
f 289/1/289 290/1/290 328/1/328
f 294/1/294 329/1/329 295/1/295
f 294/1/294 330/1/330 329/1/329
f 288/1/288 330/1/330 294/1/294
f 288/1/288 331/1/331 330/1/330
f 288/1/288 328/1/328 331/1/331
f 333/1/333 332/1/332 331/1/331
f 296/1/296 333/1/333 331/1/331
f 296/1/296 331/1/331 328/1/328
f 296/1/296 328/1/328 290/1/290
f 296/1/296 297/1/297 333/1/333
f 329/1/329 335/1/335 334/1/334
f 329/1/329 334/1/334 295/1/295
f 295/1/295 334/1/334 301/1/301
f 330/1/330 335/1/335 329/1/329
f 336/1/336 332/1/332 333/1/333
f 337/1/337 332/1/332 336/1/336
f 297/1/297 303/1/303 336/1/336
f 333/1/333 297/1/297 336/1/336
f 339/1/339 338/1/338 307/1/307
f 339/1/339 307/1/307 334/1/334
f 334/1/334 307/1/307 301/1/301
f 338/1/338 341/1/341 340/1/340
f 339/1/339 341/1/341 338/1/338
f 337/1/337 340/1/340 341/1/341
f 336/1/336 340/1/340 337/1/337
f 336/1/336 309/1/309 340/1/340
f 336/1/336 308/1/308 309/1/309
f 303/1/303 308/1/308 336/1/336
f 307/1/307 338/1/338 315/1/315
f 318/1/318 315/1/315 338/1/338
f 340/1/340 318/1/318 338/1/338
f 309/1/309 318/1/318 340/1/340
f 331/1/331 342/1/342 330/1/330
f 331/1/331 332/1/332 342/1/342
f 335/1/335 343/1/343 334/1/334
f 335/1/335 330/1/330 342/1/342
f 335/1/335 342/1/342 343/1/343
f 343/1/343 342/1/342 344/1/344
f 332/1/332 337/1/337 344/1/344
f 342/1/342 332/1/332 344/1/344
f 334/1/334 343/1/343 339/1/339
f 341/1/341 339/1/339 343/1/343
f 344/1/344 341/1/341 343/1/343
f 337/1/337 341/1/341 344/1/344
