vn -0.554224 0.0905396 -0.827429
v -105.926 14.8233 -84.3181
vn -0.120141 0.210912 -0.970094
v -105.197 14.6459 -84.6414
vn -0.394627 -0.433362 -0.810227
v -105.639 14.3721 -84.4326
vn 0.0532361 -0.21141 -0.975947
v -104.532 14.2385 -84.6571
vn 0.413736 0.24498 -0.876817
v -104.015 14.6694 -84.4421
vn -0.288264 0.636869 -0.715053
v -105.595 15.474 -84.1009
vn 0.0280233 -0.635189 -0.771848
v -104.158 13.5779 -84.3211
vn 0.491294 -0.224369 -0.841599
v -103.874 13.8171 -84.3715
vn -0.297905 -0.750575 -0.589822
v -104.829 12.916 -83.3872
vn 0.479149 -0.564617 -0.67203
v -102.896 12.896 -83.1373
vn -0.619523 -0.55292 -0.557199
v -106.557 14.0966 -83.4812
vn 0.721695 -0.197545 -0.663425
v -102.63 13.5632 -83.2796
vn 0.711353 0.237778 -0.661391
v -102.724 14.4508 -83.3266
vn -0.728342 0.447111 -0.519239
v -106.959 15.0499 -83.3392
vn 0.302178 0.560221 -0.77126
v -104.421 15.2692 -84.3146
vn 0.619355 0.578293 -0.531015
v -102.794 15.6382 -82.6559
vn -0.490101 0.802173 -0.341056
v -106.386 16.0958 -82.4968
vn -0.152549 0.886893 -0.436061
v -105.397 16.111 -83.4109
vn 0.186744 0.810713 -0.554862
v -104.649 15.9521 -83.6582
vn 0.107624 -0.853701 -0.50952
v -103.294 11.744 -82.106
vn -0.483661 -0.807052 -0.338731
v -105.843 12.1885 -81.5981
vn 0.506722 -0.736917 -0.447421
v -102.868 11.8402 -82.0443
vn 0.855228 -0.0129397 -0.51809
v -101.599 13.8009 -81.9311
vn -0.821035 -0.147636 -0.551457
v -107.013 14.6593 -83.4032
vn 0.825574 0.376176 -0.420617
v -101.754 14.7769 -81.8432
vn 0.184234 0.965563 -0.183702
v -104.42 16.9392 -80.7752
vn 0.451079 0.813091 -0.367981
v -103.062 16.0832 -82.323
vn -0.243755 -0.897356 -0.36788
v -104.604 11.5675 -81.395
vn 0.0654061 -0.973079 -0.220998
v -103.587 11.177 -80.6373
vn 0.42945 -0.884236 -0.183576
v -102.64 11.4429 -80.4676
vn 0.781274 -0.591871 -0.198241
v -101.7 12.322 -80.7905
vn 0.764696 -0.429943 -0.479989
v -101.722 12.8378 -81.6622
vn -0.872659 -0.411254 -0.263318
v -107.612 14.0701 -81.4925
vn -0.725673 -0.667035 -0.168712
v -106.803 12.8407 -81.0865
vn 0.920046 -0.268167 -0.285661
v -101.11 13.4178 -80.8487
vn 0.954997 0.115091 -0.273376
v -100.964 14.1213 -80.504
vn -0.796972 0.540076 -0.270469
v -107.238 15.589 -81.966
vn 0.723178 0.644019 -0.249504
v -101.982 15.645 -81.0052
vn -0.218049 -0.975022 -0.0422696
v -104.237 11.122 -79.8518
vn -0.525617 -0.846465 -0.0849898
v -105.751 11.8145 -80.1463
vn -0.975712 0.0780763 -0.204671
v -107.657 14.6369 -81.6597
vn -0.910423 0.406737 -0.0754709
v -107.705 15.5743 -79.8558
vn 0.465465 0.867585 -0.175039
v -102.959 16.4786 -80.9267
vn -0.155029 0.968425 -0.195239
v -105.353 16.999 -80.5915
vn 0.24976 -0.967868 0.0291674
v -103.431 11.1041 -79.6285
vn 0.614055 -0.789138 0.0140569
v -101.85 11.8695 -79.3585
vn -0.929822 -0.366031 -0.0381138
v -107.67 13.888 -79.8368
vn 0.978783 -0.202673 -0.0301114
v -100.904 13.6604 -79.7231
vn 0.932719 0.342823 -0.11184
v -100.926 14.6476 -79.4975
vn 0.795359 0.606062 0.00964834
v -101.276 15.2861 -79.0778
vn -0.668652 0.74143 -0.0564444
v -107.199 16.1701 -80.2759
vn 0.286219 0.951951 0.108942
v -104.101 16.9908 -78.8192
vn 0.512149 0.858776 -0.0144009
v -102.412 16.2629 -79.9353
vn -0.421334 -0.895451 0.143683
v -105.178 11.514 -77.9765
vn 0.157698 -0.953907 0.255329
v -103.366 11.3195 -77.9856
vn -0.636649 -0.766399 0.0855
v -106.395 12.2589 -78.1666
vn 0.826237 -0.55616 0.0895463
v -101.479 12.356 -78.7715
vn 0.677107 -0.640656 0.362059
v -101.801 12.4635 -77.3314
vn -0.781731 -0.607415 0.141221
v -107.165 13.0992 -77.8387
vn -0.999915 0.00960563 0.00881761
v -107.877 14.8465 -79.024
vn -0.934514 -0.31851 0.158853
v -107.688 14.0012 -77.7944
vn 0.59651 0.785525 0.164699
v -101.867 15.7749 -78.068
vn -0.491061 0.857723 0.152219
v -106.45 16.7175 -78.2652
vn 0.391213 0.876335 0.28105
v -103.284 16.3106 -77.1098
vn -0.341689 0.939706 -0.014208
v -105.99 17.0296 -79.1227
vn 0.0460349 0.995178 0.086617
v -104.985 17.1676 -78.8186
vn -0.0745481 -0.949658 0.30429
v -104.496 11.4359 -77.3513
vn 0.484108 -0.835463 0.260077
v -102.519 11.679 -77.9136
vn -0.586096 -0.723601 0.364545
v -105.935 12.532 -76.1694
vn 0.623758 -0.601866 0.498681
v -102.145 12.7383 -76.386
vn 0.931174 -0.256934 0.25865
v -100.977 13.7587 -78.1478
vn -0.955338 -0.0210502 0.294764
v -107.736 14.7552 -77.4142
vn 0.964047 0.204667 0.169483
v -100.976 14.403 -78.0676
vn 0.79941 0.53604 0.271302
v -101.493 15.2587 -77.5849
vn -0.887009 0.41896 0.194135
v -107.671 15.3921 -77.6187
vn -0.67566 0.665732 0.316676
v -107.044 15.9207 -76.9048
vn -0.389385 0.840103 0.377632
v -106.249 16.394 -76.7007
vn -0.130312 0.948476 0.28881
v -105.468 16.7772 -77.2612
vn 0.213456 -0.822171 0.527704
v -103.499 11.9359 -76.7051
vn -0.227011 -0.871927 0.433832
v -104.935 11.7154 -76.9004
vn -0.792422 -0.44825 0.413691
v -106.845 13.7901 -75.8616
vn 0.715464 -0.35674 0.600706
v -101.978 13.7121 -75.6688
vn 0.848325 0.0946565 0.520947
v -101.797 14.2824 -75.7462
vn 0.546765 0.736984 0.397368
v -102.299 15.4649 -76.3635
vn 0.369366 -0.619052 0.693068
v -103.117 13.3349 -75.0939
vn -0.496461 -0.531053 0.686665
v -105.891 13.4756 -75.0022
vn 0.628535 0.459276 0.627702
v -101.991 14.6624 -75.6911
vn 0.18778 0.901513 0.389887
v -104.464 16.2764 -76.0916
vn 0.33758 0.711514 0.616269
v -103.284 15.5267 -75.6306
vn -0.0392785 0.796135 0.603843
v -105.443 15.9023 -75.2903
vn -0.236333 -0.770013 0.592643
v -105.577 12.6698 -75.5805
vn -0.0243032 -0.693877 0.719684
v -104.545 13.067 -74.9864
vn -0.720932 -0.13504 0.679721
v -106.849 14.4135 -75.3933
vn -0.738695 0.30768 0.599719
v -106.788 14.8405 -75.4038
vn -0.420778 0.584533 0.693734
v -105.827 15.6283 -75.1537
vn -0.280642 -0.279462 0.918227
v -105.494 13.9137 -74.6
vn 0.169279 -0.411169 0.895703
v -103.915 13.6749 -74.4839
vn -0.33316 0.176019 0.926295
v -105.54 14.6128 -74.5837
vn 0.139708 0.101634 0.984963
v -103.976 14.022 -74.4282
vn 0.520396 -0.0646995 0.851471
v -102.852 13.9823 -74.922
vn 0.0456851 0.509027 0.859537
v -105.204 15.2076 -74.753
vn 0.375244 0.414699 0.828985
v -103.116 14.5562 -74.8973

vt 0 0
vt 0 0
vt 0 0
vt 0 0
vt 0 0
vt 0 0
vt 0 0
vt 0 0
vt 0 0
vt 0 0
vt 0 0
vt 0 0
vt 0 0
vt 0 0
vt 0 0
vt 0 0
vt 0 0
vt 0 0
vt 0 0
vt 0 0
vt 0 0
vt 0 0
vt 0 0
vt 0 0
vt 0 0
vt 0 0
vt 0 0
vt 0 0
vt 0 0
vt 0 0
vt 0 0
vt 0 0
vt 0 0
vt 0 0
vt 0 0
vt 0 0
vt 0 0
vt 0 0
vt 0 0
vt 0 0
vt 0 0
vt 0 0
vt 0 0
vt 0 0
vt 0 0
vt 0 0
vt 0 0
vt 0 0
vt 0 0
vt 0 0
vt 0 0
vt 0 0
vt 0 0
vt 0 0
vt 0 0
vt 0 0
vt 0 0
vt 0 0
vt 0 0
vt 0 0
vt 0 0
vt 0 0
vt 0 0
vt 0 0
vt 0 0
vt 0 0
vt 0 0
vt 0 0
vt 0 0
vt 0 0
vt 0 0
vt 0 0
vt 0 0
vt 0 0
vt 0 0
vt 0 0
vt 0 0
vt 0 0
vt 0 0
vt 0 0
vt 0 0
vt 0 0
vt 0 0
vt 0 0
vt 0 0
vt 0 0
vt 0 0
vt 0 0
vt 0 0
vt 0 0
vt 0 0
vt 0 0
vt 0 0
vt 0 0
vt 0 0
vt 0 0
vt 0 0
vt 0 0
vt 0 0
vt 0 0
vt 0 0
vt 0 0
vt 0 0
vt 0 0
vt 0 0
vt 0 0
vt 0 0
vt 0 0
vt 0 0
vt 0 0
vt 0 0
vt 0 0
vt 0 0
vt 0 0
vt 0 0
vt 0 0
vt 0 0
vt 0 0
vt 0 0
vt 0 0
vt 0 0
vt 0 0
vt 0 0
vt 0 0
vt 0 0
vt 0 0
vt 0 0
vt 0 0
vt 0 0
vt 0 0
vt 0 0
vt 0 0
vt 0 0
vt 0 0
vt 0 0
vt 0 0
vt 0 0
vt 0 0
vt 0 0
vt 0 0
vt 0 0
vt 0 0
vt 0 0
vt 0 0
vt 0 0
vt 0 0
vt 0 0
vt 0 0
vt 0 0
vt 0 0
vt 0 0
vt 0 0
vt 0 0
vt 0 0
vt 0 0
vt 0 0
vt 0 0
vt 0 0
vt 0 0
vt 0 0
vt 0 0
vt 0 0
vt 0 0
vt 0 0
vt 0 0
vt 0 0
vt 0 0
vt 0 0
vt 0 0
vt 0 0
vt 0 0
vt 0 0
vt 0 0
vt 0 0
vt 0 0
vt 0 0
vt 0 0
vt 0 0
vt 0 0
vt 0 0
vt 0 0
vt 0 0
vt 0 0
vt 0 0
vt 0 0
vt 0 0
vt 0 0
vt 0 0
vt 0 0
vt 0 0
vt 0 0
vt 0 0
vt 0 0
vt 0 0
vt 0 0
vt 0 0
vt 0 0
vt 0 0
vt 0 0
vt 0 0
vt 0 0
vt 0 0
vt 0 0
vt 0 0
vt 0 0
vt 0 0
vt 0 0
vt 0 0
vt 0 0
vt 0 0
vt 0 0
vt 0 0
vt 0 0
vt 0 0
vt 0 0
vt 0 0
vt 0 0
vt 0 0
vt 0 0
vt 0 0
vt 0 0
vt 0 0
vt 0 0
vt 0 0
vt 0 0
vt 0 0
vt 0 0
vt 0 0
vt 0 0
vt 0 0
vt 0 0
vt 0 0
vt 0 0
vt 0 0
vt 0 0
vt 0 0
vt 0 0
vt 0 0
vt 0 0
vt 0 0
vt 0 0
vt 0 0
vt 0 0
vt 0 0
vt 0 0
vt 0 0
vt 0 0
vt 0 0
vt 0 0
vt 0 0
vt 0 0
vt 0 0
vt 0 0
vt 0 0
vt 0 0
vt 0 0
vt 0 0
vt 0 0
vt 0 0
vt 0 0
vt 0 0
vt 0 0
vt 0 0
vt 0 0
vt 0 0
vt 0 0
vt 0 0
vt 0 0
vt 0 0
vt 0 0
vt 0 0
vt 0 0
vt 0 0
vt 0 0
vt 0 0
vt 0 0
vt 0 0
vt 0 0
vt 0 0
vt 0 0
vt 0 0
vt 0 0
vt 0 0
vt 0 0
vt 0 0
vt 0 0
vt 0 0
vt 0 0
vt 0 0
vt 0 0
vt 0 0
vt 0 0
vt 0 0
vt 0 0
vt 0 0
vt 0 0
vt 0 0
vt 0 0
vt 0 0
vt 0 0
vt 0 0
vt 0 0
vt 0 0
vt 0 0
vt 0 0
vt 0 0
vt 0 0
vt 0 0
vt 0 0
vt 0 0
vt 0 0
vt 0 0
vt 0 0
vt 0 0
vt 0 0
vt 0 0
vt 0 0
vt 0 0
vt 0 0
vt 0 0
vt 0 0
vt 0 0
vt 0 0
vt 0 0
vt 0 0
vt 0 0
vt 0 0
vt 0 0
vt 0 0
vt 0 0
vt 0 0
vt 0 0
vt 0 0
vt 0 0
vt 0 0
vt 0 0
vt 0 0
vt 0 0
vt 0 0
vt 0 0
vt 0 0
vt 0 0
vt 0 0
vt 0 0
vt 0 0
vt 0 0
vt 0 0
vt 0 0
vt 0 0
vt 0 0
vt 0 0
vt 0 0
vt 0 0
vt 0 0
vt 0 0
vt 0 0
vt 0 0
vt 0 0
vt 0 0
vt 0 0
vt 0 0
vt 0 0
vt 0 0
vt 0 0
vt 0 0
vt 0 0
vt 0 0
vt 0 0
vt 0 0
vt 0 0
vt 0 0
vt 0 0
vt 0 0
vt 0 0
vt 0 0
vt 0 0
vt 0 0
vt 0 0
vt 0 0
vt 0 0
vt 0 0
vt 0 0
vt 0 0
vt 0 0
vt 0 0
vt 0 0
vt 0 0
vt 0 0
vt 0 0
vt 0 0
vt 0 0
vt 0 0
vt 0 0
vt 0 0
vt 0 0
vt 0 0
vt 0 0
vt 0 0
vt 0 0
vt 0 0
vt 0 0
vt 0 0
vt 0 0
vt 0 0
vt 0 0
vt 0 0
vt 0 0
vt 0 0
vt 0 0
vt 0 0
vt 0 0
vt 0 0
vt 0 0
vt 0 0
vt 0 0
vt 0 0
vt 0 0
vt 0 0
vt 0 0
vt 0 0
vt 0 0
vt 0 0
vt 0 0
vt 0 0
vt 0 0
vt 0 0
vt 0 0
vt 0 0
vt 0 0
vt 0 0
vt 0 0
vt 0 0
vt 0 0
vt 0 0
vt 0 0
vt 0 0
vt 0 0
vt 0 0
vt 0 0
vt 0 0
vt 0 0
vt 0 0
vt 0 0
vt 0 0
vt 0 0
vt 0 0
vt 0 0
vt 0 0
vt 0 0
vt 0 0
vt 0 0
vt 0 0
vt 0 0
vt 0 0
vt 0 0
vt 0 0
vt 0 0
vt 0 0
vt 0 0
vt 0 0
vt 0 0
vt 0 0
vt 0 0
vt 0 0
vt 0 0
vt 0 0
vt 0 0
vt 0 0
vt 0 0
vt 0 0
vt 0 0
vt 0 0
vt 0 0
vt 0 0
vt 0 0
vt 0 0
vt 0 0
vt 0 0
vt 0 0
vt 0 0
vt 0 0
vt 0 0
vt 0 0
vt 0 0
vt 0 0
vt 0 0
vt 0 0
vt 0 0
vt 0 0
vt 0 0
vt 0 0
vt 0 0
vt 0 0
vt 0 0
vt 0 0
vt 0 0
vt 0 0
vt 0 0
vt 0 0
vt 0 0
vt 0 0
vt 0 0
vt 0 0
vt 0 0
vt 0 0
vt 0 0
vt 0 0
vt 0 0
vt 0 0
vt 0 0
vt 0 0
vt 0 0
vt 0 0
vt 0 0
vt 0 0
vt 0 0
vt 0 0
vt 0 0
vt 0 0
vt 0 0
vt 0 0
vt 0 0
vt 0 0
vt 0 0
vt 0 0
vt 0 0
vt 0 0
vt 0 0
vt 0 0
vt 0 0
vt 0 0
vt 0 0
vt 0 0
vt 0 0
vt 0 0
vt 0 0
vt 0 0
vt 0 0
vt 0 0
vt 0 0
vt 0 0
vt 0 0
vt 0 0
vt 0 0
vt 0 0
vt 0 0
vt 0 0
vt 0 0
vt 0 0
vt 0 0
vt 0 0
vt 0 0
vt 0 0
vt 0 0
vt 0 0
vt 0 0
vt 0 0
vt 0 0
vt 0 0
vt 0 0
vt 0 0
vt 0 0
vt 0 0
vt 0 0
vt 0 0
vt 0 0
vt 0 0
vt 0 0
vt 0 0
vt 0 0
vt 0 0
vt 0 0
vt 0 0
vt 0 0
vt 0 0
vt 0 0
vt 0 0
vt 0 0
vt 0 0
vt 0 0
vt 0 0
vt 0 0
vt 0 0
vt 0 0
vt 0 0
vt 0 0
vt 0 0
vt 0 0
vt 0 0
vt 0 0
vt 0 0
vt 0 0
vt 0 0
vt 0 0
vt 0 0
vt 0 0
vt 0 0
vt 0 0
vt 0 0
vt 0 0

f 7/1/7 4/1/4 8/1/8
f 2/1/2 3/1/3 1/1/1
f 2/1/2 4/1/4 3/1/3
f 7/1/7 3/1/3 4/1/4
f 8/1/8 4/1/4 5/1/5
f 2/1/2 5/1/5 4/1/4
f 1/1/1 6/1/6 2/1/2
f 15/1/15 2/1/2 6/1/6
f 5/1/5 2/1/2 15/1/15
f 11/1/11 1/1/1 3/1/3
f 9/1/9 11/1/11 3/1/3
f 7/1/7 9/1/9 3/1/3
f 11/1/11 24/1/24 1/1/1
f 6/1/6 14/1/14 17/1/17
f 1/1/1 14/1/14 6/1/6
f 1/1/1 24/1/24 14/1/14
f 6/1/6 17/1/17 18/1/18
f 6/1/6 18/1/18 19/1/19
f 19/1/19 15/1/15 6/1/6
f 7/1/7 10/1/10 20/1/20
f 7/1/7 20/1/20 9/1/9
f 20/1/20 10/1/10 22/1/22
f 7/1/7 8/1/8 10/1/10
f 8/1/8 12/1/12 10/1/10
f 12/1/12 8/1/8 13/1/13
f 5/1/5 13/1/13 8/1/8
f 5/1/5 15/1/15 13/1/13
f 15/1/15 16/1/16 13/1/13
f 37/1/37 17/1/17 14/1/14
f 19/1/19 16/1/16 15/1/15
f 27/1/27 16/1/16 19/1/19
f 28/1/28 21/1/21 9/1/9
f 20/1/20 28/1/28 9/1/9
f 10/1/10 32/1/32 22/1/22
f 11/1/11 34/1/34 33/1/33
f 21/1/21 34/1/34 11/1/11
f 9/1/9 21/1/21 11/1/11
f 32/1/32 12/1/12 23/1/23
f 10/1/10 12/1/12 32/1/32
f 24/1/24 33/1/33 41/1/41
f 24/1/24 11/1/11 33/1/33
f 23/1/23 13/1/13 25/1/25
f 12/1/12 13/1/13 23/1/23
f 24/1/24 41/1/41 14/1/14
f 13/1/13 16/1/16 25/1/25
f 37/1/37 14/1/14 41/1/41
f 18/1/18 17/1/17 44/1/44
f 19/1/19 18/1/18 26/1/26
f 18/1/18 44/1/44 26/1/26
f 19/1/19 26/1/26 27/1/27
f 28/1/28 39/1/39 21/1/21
f 20/1/20 29/1/29 28/1/28
f 22/1/22 30/1/30 20/1/20
f 20/1/20 30/1/30 29/1/29
f 22/1/22 31/1/31 30/1/30
f 31/1/31 22/1/22 32/1/32
f 32/1/32 23/1/23 35/1/35
f 35/1/35 23/1/23 36/1/36
f 23/1/23 25/1/25 36/1/36
f 16/1/16 38/1/38 25/1/25
f 17/1/17 37/1/37 51/1/51
f 43/1/43 27/1/27 26/1/26
f 38/1/38 16/1/16 27/1/27
f 43/1/43 38/1/38 27/1/27
f 21/1/21 39/1/39 40/1/40
f 39/1/39 28/1/28 29/1/29
f 29/1/29 30/1/30 45/1/45
f 21/1/21 40/1/40 34/1/34
f 33/1/33 34/1/34 47/1/47
f 48/1/48 35/1/35 36/1/36
f 48/1/48 31/1/31 35/1/35
f 31/1/31 32/1/32 35/1/35
f 33/1/33 47/1/47 41/1/41
f 36/1/36 25/1/25 49/1/49
f 48/1/48 36/1/36 49/1/49
f 41/1/41 60/1/60 42/1/42
f 37/1/37 41/1/41 42/1/42
f 42/1/42 51/1/51 37/1/37
f 38/1/38 53/1/53 50/1/50
f 49/1/49 25/1/25 38/1/38
f 50/1/50 49/1/49 38/1/38
f 65/1/65 17/1/17 51/1/51
f 17/1/17 65/1/65 44/1/44
f 43/1/43 26/1/26 53/1/53
f 53/1/53 38/1/38 43/1/43
f 39/1/39 54/1/54 40/1/40
f 45/1/45 39/1/39 29/1/29
f 46/1/46 45/1/45 30/1/30
f 34/1/34 40/1/40 56/1/56
f 31/1/31 46/1/46 30/1/30
f 57/1/57 46/1/46 31/1/31
f 34/1/34 59/1/59 47/1/47
f 59/1/59 34/1/34 56/1/56
f 31/1/31 48/1/48 57/1/57
f 41/1/41 47/1/47 60/1/60
f 26/1/26 52/1/52 53/1/53
f 44/1/44 65/1/65 66/1/66
f 26/1/26 44/1/44 66/1/66
f 66/1/66 52/1/52 26/1/26
f 39/1/39 67/1/67 54/1/54
f 45/1/45 55/1/55 39/1/39
f 55/1/55 67/1/67 39/1/39
f 45/1/45 68/1/68 55/1/55
f 68/1/68 45/1/45 46/1/46
f 54/1/54 56/1/56 40/1/40
f 46/1/46 57/1/57 68/1/68
f 57/1/57 71/1/71 58/1/58
f 48/1/48 71/1/71 57/1/57
f 47/1/47 61/1/61 60/1/60
f 61/1/61 47/1/47 59/1/59
f 71/1/71 48/1/48 73/1/73
f 49/1/49 50/1/50 73/1/73
f 73/1/73 48/1/48 49/1/49
f 60/1/60 72/1/72 75/1/75
f 42/1/42 60/1/60 75/1/75
f 75/1/75 51/1/51 42/1/42
f 76/1/76 51/1/51 75/1/75
f 50/1/50 62/1/62 74/1/74
f 53/1/53 62/1/62 50/1/50
f 51/1/51 76/1/76 63/1/63
f 65/1/65 51/1/51 63/1/63
f 53/1/53 52/1/52 64/1/64
f 64/1/64 62/1/62 53/1/53
f 54/1/54 67/1/67 80/1/80
f 69/1/69 56/1/56 54/1/54
f 57/1/57 58/1/58 68/1/68
f 71/1/71 70/1/70 58/1/58
f 60/1/60 61/1/61 72/1/72
f 50/1/50 74/1/74 73/1/73
f 63/1/63 76/1/76 77/1/77
f 65/1/65 78/1/78 66/1/66
f 65/1/65 63/1/63 78/1/78
f 63/1/63 77/1/77 78/1/78
f 66/1/66 88/1/88 52/1/52
f 78/1/78 88/1/88 66/1/66
f 52/1/52 88/1/88 64/1/64
f 55/1/55 68/1/68 79/1/79
f 80/1/80 69/1/69 54/1/54
f 80/1/80 91/1/91 69/1/69
f 79/1/79 80/1/80 67/1/67
f 55/1/55 79/1/79 67/1/67
f 58/1/58 70/1/70 79/1/79
f 58/1/58 79/1/79 68/1/68
f 61/1/61 59/1/59 81/1/81
f 69/1/69 59/1/59 56/1/56
f 81/1/81 59/1/59 69/1/69
f 82/1/82 70/1/70 71/1/71
f 61/1/61 81/1/81 72/1/72
f 73/1/73 83/1/83 71/1/71
f 83/1/83 82/1/82 71/1/71
f 74/1/74 84/1/84 87/1/87
f 83/1/83 74/1/74 87/1/87
f 73/1/73 74/1/74 83/1/83
f 75/1/75 94/1/94 76/1/76
f 75/1/75 72/1/72 94/1/94
f 84/1/84 64/1/64 89/1/89
f 74/1/74 62/1/62 84/1/84
f 62/1/62 64/1/64 84/1/84
f 80/1/80 79/1/79 91/1/91
f 70/1/70 85/1/85 79/1/79
f 69/1/69 86/1/86 81/1/81
f 69/1/69 91/1/91 86/1/86
f 82/1/82 100/1/100 85/1/85
f 70/1/70 82/1/82 85/1/85
f 81/1/81 93/1/93 72/1/72
f 72/1/72 93/1/93 94/1/94
f 95/1/95 76/1/76 94/1/94
f 88/1/88 89/1/89 64/1/64
f 87/1/87 84/1/84 89/1/89
f 77/1/77 76/1/76 95/1/95
f 78/1/78 77/1/77 90/1/90
f 77/1/77 95/1/95 90/1/90
f 90/1/90 88/1/88 78/1/78
f 91/1/91 79/1/79 92/1/92
f 92/1/92 79/1/79 85/1/85
f 91/1/91 92/1/92 86/1/86
f 81/1/81 86/1/86 93/1/93
f 83/1/83 100/1/100 82/1/82
f 87/1/87 102/1/102 100/1/100
f 83/1/83 87/1/87 100/1/100
f 89/1/89 90/1/90 101/1/101
f 88/1/88 90/1/90 89/1/89
f 89/1/89 101/1/101 102/1/102
f 102/1/102 87/1/87 89/1/89
f 86/1/86 92/1/92 96/1/96
f 96/1/96 92/1/92 97/1/97
f 92/1/92 85/1/85 97/1/97
f 96/1/96 98/1/98 93/1/93
f 86/1/86 96/1/96 93/1/93
f 97/1/97 99/1/99 96/1/96
f 99/1/99 98/1/98 96/1/96
f 85/1/85 100/1/100 97/1/97
f 100/1/100 99/1/99 97/1/97
f 98/1/98 95/1/95 94/1/94
f 93/1/93 98/1/98 94/1/94
f 101/1/101 95/1/95 98/1/98
f 99/1/99 101/1/101 98/1/98
f 102/1/102 101/1/101 99/1/99
f 100/1/100 102/1/102 99/1/99
f 90/1/90 95/1/95 101/1/101
