vn -0.611822 0.26409 0.44577
v -26.6904 -25.1787 -121.968
vn -0.63669 -0.268381 0.474142
v -26.4866 -25.81 -121.792
vn -0.129304 0.22471 0.729571
v -26.2472 -25.2901 -121.711
vn -0.379455 -0.197416 0.679169
v -25.9401 -26.2975 -121.446
vn -0.51784 -0.695143 0.308459
v -25.9265 -26.8903 -121.882
vn -0.904179 -0.164264 0.000159368
v -27.0219 -25.6623 -122.601
vn 0.250254 0.0423248 0.772185
v -25.1597 -26.5265 -121.291
vn -0.0265649 -0.605841 0.633778
v -25.244 -26.8435 -121.293
vn 0.347389 0.303818 0.680051
v -24.5306 -25.5958 -121.847
vn 0.455995 -0.439952 0.64007
v -23.6759 -27.2477 -122.102
vn 0.0955021 0.567447 0.565072
v -25.7331 -24.3067 -122.144
vn 0.231974 -0.822914 0.432876
v -23.9756 -27.7131 -122.302
vn -0.218526 -0.955993 0.157999
v -24.64 -27.922 -122.815
vn -0.75502 0.494242 -0.173798
v -26.5676 -24.2386 -122.924
vn -0.635934 -0.702898 0.112958
v -26.4348 -26.6973 -122.361
vn -0.419434 -0.93053 -0.0637842
v -25.1927 -28.073 -124.25
vn -0.858202 0.237031 -0.415174
v -26.7768 -25.0227 -124.406
vn -0.884218 -0.324096 -0.362808
v -26.9362 -26.0437 -123.666
vn -0.745355 -0.648801 -0.191408
v -26.638 -26.6829 -123.391
vn 0.59483 -0.0154314 0.644456
v -22.3357 -26.4517 -122.483
vn 0.466356 0.496282 0.517653
v -23.174 -24.4297 -122.958
vn 0.673263 -0.392353 0.524495
v -22.1996 -26.8305 -122.598
vn 0.220835 -0.982025 0.17639
v -23.0291 -28.4842 -123.813
vn -0.41484 0.725164 0.159205
v -26.2885 -24.0041 -122.591
vn -0.0714275 -1.04827 -0.0534158
v -23.6827 -28.697 -124.553
vn -0.736557 -0.563029 -0.531172
v -25.809 -26.6677 -126.658
vn -0.589025 -0.81775 -0.285968
v -25.4641 -27.9625 -124.82
vn 0.559178 0.308034 0.580999
v -22.2757 -25.2909 -122.907
vn 0.776502 0.0202407 0.496934
v -21.2573 -25.8367 -123.499
vn 0.839033 -0.26745 0.402948
v -20.9845 -26.5421 -123.958
vn 0.741316 -0.655625 0.249288
v -21.4194 -27.6363 -124.118
vn 0.532037 -0.742025 0.373709
v -22.236 -27.9426 -123.479
vn -0.0229529 0.896936 0.0324731
v -24.865 -23.2242 -123.975
vn 0.347929 0.78338 0.236019
v -23.4304 -23.6389 -123.656
vn 0.520041 -0.899816 0.124952
v -22.0011 -28.4561 -124.739
vn 0.27099 -1.03282 -0.0245144
v -22.2955 -28.7537 -125.495
vn -0.674822 0.570419 -0.392361
v -26.1699 -24.1677 -124.52
vn -0.262613 -1.01146 -0.25997
v -24.0187 -28.6257 -125.933
vn 0.763757 0.361046 0.371975
v -20.8222 -25.1794 -124.155
vn 0.59261 0.600929 0.321054
v -21.983 -24.2594 -124.024
vn -0.412654 0.802142 -0.285086
v -25.4195 -23.4992 -124.215
vn -0.570104 0.659214 -0.446898
v -25.1839 -23.6301 -126.446
vn -0.573852 -0.792826 -0.455952
v -24.9852 -28.0117 -126.406
vn -0.853452 -0.232101 -0.552792
v -26.1285 -25.853 -126.782
vn 0.922312 -0.111934 0.316349
v -20.5087 -25.7786 -124.42
vn 0.890352 -0.441531 0.229726
v -20.3621 -27.2046 -125.262
vn 0.00416471 0.926521 -0.15389
v -23.8963 -23.1673 -125.559
vn 0.567683 -0.916713 -0.0168817
v -21.5138 -28.5833 -125.977
vn 0.167264 -1.06514 -0.18979
v -22.1048 -28.8603 -126.783
vn -0.0107833 -1.04255 -0.423219
v -22.5284 -28.8132 -127.522
vn -0.694366 0.487773 -0.528471
v -25.6837 -24.3019 -126.322
vn -0.577744 -0.572835 -0.77735
v -24.7081 -26.783 -128.581
vn -0.451986 -0.828595 -0.594953
v -24.0934 -28.3578 -127.337
vn 0.692218 0.626194 0.152992
v -20.4542 -24.295 -125.984
vn 1.00691 0.006281 0.136136
v -19.668 -25.6732 -126.126
vn 0.58555 0.721744 0.122644
v -21.1422 -23.5262 -126.16
vn 0.816788 -0.683585 0.0515573
v -20.2599 -27.5604 -126.107
vn 0.975879 -0.476868 -0.087351
v -19.583 -27.035 -127.439
vn 0.295634 0.90036 -0.118449
v -21.8013 -23.0803 -126.776
vn -0.212969 0.881126 -0.328646
v -24.2901 -23.2372 -126.824
vn 0.0205748 0.922871 -0.313459
v -22.7265 -23.0125 -127.397
vn -0.175807 -0.905164 -0.697016
v -22.4454 -28.3455 -128.816
vn -0.674552 0.385353 -0.693156
v -25.0764 -24.662 -128.632
vn -0.386367 -0.653121 -0.877085
v -22.8919 -27.1926 -129.781
vn -0.809115 0.101322 -0.649755
v -25.6035 -25.1789 -127.984
vn -0.687688 -0.401221 -0.767318
v -25.1417 -26.1303 -128.538
vn 0.932787 0.34883 0.0781607
v -19.6653 -24.7385 -126.505
vn 1.00682 -0.269957 0.082035
v -19.6052 -26.3571 -126.476
vn 0.583376 0.787353 -0.167724
v -20.2441 -23.7122 -128.159
vn 1.02001 -0.38206 -0.194816
v -19.3664 -26.6671 -128.56
vn 0.758654 -0.793574 -0.158141
v -20.7184 -28.2474 -127.59
vn -0.0872727 0.885112 -0.456052
v -23.1878 -23.2792 -128.202
vn 0.411696 -1.00233 -0.323361
v -21.0348 -28.4973 -128.095
vn 0.14295 -0.986982 -0.597201
v -21.6617 -28.2923 -128.965
vn -0.398387 0.732469 -0.574672
v -23.8955 -23.4663 -128.386
vn -0.432373 0.624096 -0.720609
v -23.7092 -23.9908 -129.41
vn -0.481286 0.377057 -0.909431
v -23.9002 -24.6096 -129.979
vn -0.625952 -0.169755 -0.916126
v -24.2385 -25.4276 -129.811
vn 1.05977 0.0551089 -0.136421
v -19.4212 -25.5108 -127.597
vn 0.870055 0.516329 -0.0779973
v -19.7971 -24.4098 -127.089
vn 0.254166 0.899311 -0.367844
v -21.5594 -23.4477 -129.131
vn 0.957217 -0.493141 -0.38884
v -19.5603 -27.0654 -129.893
vn 0.630777 -0.81704 -0.562014
v -19.9748 -27.526 -130.087
vn -0.0896162 -0.820986 -0.845736
v -21.3987 -27.6367 -130.138
vn 1.06154 -0.0905392 -0.333176
v -19.409 -25.8786 -130
vn 0.516177 0.79429 -0.437227
v -20.4631 -23.9556 -129.793
vn 0.29972 -0.711839 -0.936622
v -20.25 -27.4387 -130.407
vn -0.435439 -0.480124 -0.964164
v -22.6798 -26.0801 -130.57
vn -0.125545 -0.523071 -1.07476
v -21.435 -26.8496 -130.774
vn -0.375331 -0.0609897 -1.10032
v -22.5802 -25.1577 -131.025
vn 0.840881 0.562345 -0.281691
v -19.9652 -23.9492 -128.829
vn 0.931974 0.407657 -0.374834
v -19.5549 -24.7899 -129.845
vn 0.151178 0.856004 -0.573683
v -21.716 -23.525 -129.985
vn -0.219549 0.703251 -0.769132
v -22.0752 -23.7706 -130.206
vn -0.264469 0.493696 -0.960234
v -22.1428 -24.7945 -130.989
vn 0.554243 0.625307 -0.73609
v -20.5136 -24.2034 -130.644
vn 0.893647 0.119567 -0.739482
v -19.5314 -25.3399 -130.729
vn 0.107348 0.529625 -1.00441
v -21.0975 -24.3328 -131.049
vn 0.482486 0.0182405 -1.11168
v -19.7848 -25.3809 -130.886
vn 0.770258 -0.359705 -0.857465
v -19.6496 -26.2771 -130.576
vn 0.0167114 0.00989026 -1.20038
v -21.5787 -25.0627 -131.351
vn 0.322946 -0.352482 -1.13032
v -20.262 -26.3072 -130.875

vt 0 0
vt 0 0
vt 0 0
vt 0 0
vt 0 0
vt 0 0
vt 0 0
vt 0 0
vt 0 0
vt 0 0
vt 0 0
vt 0 0
vt 0 0
vt 0 0
vt 0 0
vt 0 0
vt 0 0
vt 0 0
vt 0 0
vt 0 0
vt 0 0
vt 0 0
vt 0 0
vt 0 0
vt 0 0
vt 0 0
vt 0 0
vt 0 0
vt 0 0
vt 0 0
vt 0 0
vt 0 0
vt 0 0
vt 0 0
vt 0 0
vt 0 0
vt 0 0
vt 0 0
vt 0 0
vt 0 0
vt 0 0
vt 0 0
vt 0 0
vt 0 0
vt 0 0
vt 0 0
vt 0 0
vt 0 0
vt 0 0
vt 0 0
vt 0 0
vt 0 0
vt 0 0
vt 0 0
vt 0 0
vt 0 0
vt 0 0
vt 0 0
vt 0 0
vt 0 0
vt 0 0
vt 0 0
vt 0 0
vt 0 0
vt 0 0
vt 0 0
vt 0 0
vt 0 0
vt 0 0
vt 0 0
vt 0 0
vt 0 0
vt 0 0
vt 0 0
vt 0 0
vt 0 0
vt 0 0
vt 0 0
vt 0 0
vt 0 0
vt 0 0
vt 0 0
vt 0 0
vt 0 0
vt 0 0
vt 0 0
vt 0 0
vt 0 0
vt 0 0
vt 0 0
vt 0 0
vt 0 0
vt 0 0
vt 0 0
vt 0 0
vt 0 0
vt 0 0
vt 0 0
vt 0 0
vt 0 0
vt 0 0
vt 0 0
vt 0 0
vt 0 0
vt 0 0
vt 0 0
vt 0 0
vt 0 0
vt 0 0
vt 0 0
vt 0 0
vt 0 0
vt 0 0
vt 0 0
vt 0 0
vt 0 0
vt 0 0
vt 0 0
vt 0 0
vt 0 0
vt 0 0
vt 0 0
vt 0 0
vt 0 0
vt 0 0
vt 0 0
vt 0 0
vt 0 0
vt 0 0
vt 0 0
vt 0 0
vt 0 0
vt 0 0
vt 0 0
vt 0 0
vt 0 0
vt 0 0
vt 0 0
vt 0 0
vt 0 0
vt 0 0
vt 0 0
vt 0 0
vt 0 0
vt 0 0
vt 0 0
vt 0 0
vt 0 0
vt 0 0
vt 0 0
vt 0 0
vt 0 0
vt 0 0
vt 0 0
vt 0 0
vt 0 0
vt 0 0
vt 0 0
vt 0 0
vt 0 0
vt 0 0
vt 0 0
vt 0 0
vt 0 0
vt 0 0
vt 0 0
vt 0 0
vt 0 0
vt 0 0
vt 0 0
vt 0 0
vt 0 0
vt 0 0
vt 0 0
vt 0 0
vt 0 0
vt 0 0
vt 0 0
vt 0 0
vt 0 0
vt 0 0
vt 0 0
vt 0 0
vt 0 0
vt 0 0
vt 0 0
vt 0 0
vt 0 0
vt 0 0
vt 0 0
vt 0 0
vt 0 0
vt 0 0
vt 0 0
vt 0 0
vt 0 0
vt 0 0
vt 0 0
vt 0 0
vt 0 0
vt 0 0
vt 0 0
vt 0 0
vt 0 0
vt 0 0
vt 0 0
vt 0 0
vt 0 0
vt 0 0
vt 0 0
vt 0 0
vt 0 0
vt 0 0
vt 0 0
vt 0 0
vt 0 0
vt 0 0
vt 0 0
vt 0 0
vt 0 0
vt 0 0
vt 0 0
vt 0 0
vt 0 0
vt 0 0
vt 0 0
vt 0 0
vt 0 0
vt 0 0
vt 0 0
vt 0 0
vt 0 0
vt 0 0
vt 0 0
vt 0 0
vt 0 0
vt 0 0
vt 0 0
vt 0 0
vt 0 0
vt 0 0
vt 0 0
vt 0 0
vt 0 0
vt 0 0
vt 0 0
vt 0 0
vt 0 0
vt 0 0
vt 0 0
vt 0 0
vt 0 0
vt 0 0
vt 0 0
vt 0 0
vt 0 0
vt 0 0
vt 0 0
vt 0 0
vt 0 0
vt 0 0
vt 0 0
vt 0 0
vt 0 0
vt 0 0
vt 0 0
vt 0 0
vt 0 0
vt 0 0
vt 0 0
vt 0 0
vt 0 0
vt 0 0
vt 0 0
vt 0 0
vt 0 0
vt 0 0
vt 0 0
vt 0 0
vt 0 0
vt 0 0
vt 0 0
vt 0 0
vt 0 0
vt 0 0
vt 0 0
vt 0 0
vt 0 0
vt 0 0
vt 0 0
vt 0 0
vt 0 0
vt 0 0
vt 0 0
vt 0 0
vt 0 0
vt 0 0
vt 0 0
vt 0 0
vt 0 0
vt 0 0
vt 0 0
vt 0 0
vt 0 0
vt 0 0
vt 0 0
vt 0 0
vt 0 0
vt 0 0
vt 0 0
vt 0 0
vt 0 0
vt 0 0
vt 0 0
vt 0 0
vt 0 0
vt 0 0
vt 0 0
vt 0 0
vt 0 0
vt 0 0
vt 0 0
vt 0 0
vt 0 0
vt 0 0
vt 0 0
vt 0 0
vt 0 0
vt 0 0
vt 0 0
vt 0 0
vt 0 0
vt 0 0
vt 0 0
vt 0 0
vt 0 0
vt 0 0
vt 0 0
vt 0 0
vt 0 0
vt 0 0
vt 0 0
vt 0 0
vt 0 0
vt 0 0
vt 0 0
vt 0 0
vt 0 0
vt 0 0
vt 0 0
vt 0 0
vt 0 0
vt 0 0
vt 0 0
vt 0 0
vt 0 0
vt 0 0
vt 0 0
vt 0 0
vt 0 0
vt 0 0
vt 0 0
vt 0 0
vt 0 0
vt 0 0
vt 0 0
vt 0 0
vt 0 0
vt 0 0
vt 0 0
vt 0 0
vt 0 0
vt 0 0
vt 0 0
vt 0 0
vt 0 0
vt 0 0
vt 0 0
vt 0 0
vt 0 0
vt 0 0
vt 0 0
vt 0 0
vt 0 0
vt 0 0
vt 0 0
vt 0 0
vt 0 0
vt 0 0
vt 0 0
vt 0 0
vt 0 0
vt 0 0
vt 0 0
vt 0 0
vt 0 0
vt 0 0
vt 0 0
vt 0 0
vt 0 0
vt 0 0
vt 0 0
vt 0 0
vt 0 0
vt 0 0
vt 0 0
vt 0 0
vt 0 0
vt 0 0
vt 0 0
vt 0 0
vt 0 0
vt 0 0
vt 0 0
vt 0 0
vt 0 0
vt 0 0
vt 0 0
vt 0 0
vt 0 0
vt 0 0
vt 0 0
vt 0 0
vt 0 0
vt 0 0
vt 0 0
vt 0 0
vt 0 0
vt 0 0
vt 0 0
vt 0 0
vt 0 0
vt 0 0
vt 0 0
vt 0 0
vt 0 0
vt 0 0
vt 0 0
vt 0 0
vt 0 0
vt 0 0
vt 0 0
vt 0 0
vt 0 0
vt 0 0
vt 0 0
vt 0 0
vt 0 0
vt 0 0
vt 0 0
vt 0 0
vt 0 0
vt 0 0
vt 0 0
vt 0 0
vt 0 0
vt 0 0
vt 0 0
vt 0 0
vt 0 0
vt 0 0
vt 0 0
vt 0 0
vt 0 0
vt 0 0
vt 0 0
vt 0 0
vt 0 0
vt 0 0
vt 0 0
vt 0 0
vt 0 0
vt 0 0
vt 0 0
vt 0 0
vt 0 0
vt 0 0
vt 0 0
vt 0 0
vt 0 0
vt 0 0
vt 0 0
vt 0 0
vt 0 0
vt 0 0
vt 0 0
vt 0 0
vt 0 0
vt 0 0
vt 0 0
vt 0 0
vt 0 0
vt 0 0
vt 0 0
vt 0 0
vt 0 0
vt 0 0
vt 0 0
vt 0 0
vt 0 0
vt 0 0
vt 0 0
vt 0 0
vt 0 0
vt 0 0
vt 0 0
vt 0 0
vt 0 0
vt 0 0
vt 0 0
vt 0 0
vt 0 0
vt 0 0
vt 0 0
vt 0 0
vt 0 0
vt 0 0
vt 0 0
vt 0 0
vt 0 0
vt 0 0
vt 0 0
vt 0 0
vt 0 0
vt 0 0
vt 0 0
vt 0 0
vt 0 0
vt 0 0
vt 0 0
vt 0 0
vt 0 0
vt 0 0
vt 0 0
vt 0 0
vt 0 0
vt 0 0
vt 0 0
vt 0 0
vt 0 0
vt 0 0
vt 0 0
vt 0 0
vt 0 0
vt 0 0
vt 0 0
vt 0 0
vt 0 0
vt 0 0
vt 0 0
vt 0 0
vt 0 0
vt 0 0
vt 0 0
vt 0 0
vt 0 0
vt 0 0
vt 0 0
vt 0 0
vt 0 0
vt 0 0
vt 0 0
vt 0 0
vt 0 0
vt 0 0
vt 0 0
vt 0 0
vt 0 0
vt 0 0
vt 0 0
vt 0 0
vt 0 0
vt 0 0
vt 0 0
vt 0 0
vt 0 0
vt 0 0
vt 0 0
vt 0 0
vt 0 0
vt 0 0
vt 0 0
vt 0 0
vt 0 0
vt 0 0
vt 0 0
vt 0 0
vt 0 0
vt 0 0
vt 0 0
vt 0 0
vt 0 0
vt 0 0
vt 0 0
vt 0 0
vt 0 0
vt 0 0
vt 0 0
vt 0 0
vt 0 0

f 7/1/7 4/1/4 8/1/8
f 2/1/2 3/1/3 1/1/1
f 2/1/2 4/1/4 3/1/3
f 7/1/7 3/1/3 4/1/4
f 8/1/8 4/1/4 5/1/5
f 2/1/2 5/1/5 4/1/4
f 1/1/1 6/1/6 2/1/2
f 15/1/15 2/1/2 6/1/6
f 5/1/5 2/1/2 15/1/15
f 11/1/11 1/1/1 3/1/3
f 9/1/9 11/1/11 3/1/3
f 7/1/7 9/1/9 3/1/3
f 11/1/11 24/1/24 1/1/1
f 6/1/6 14/1/14 17/1/17
f 1/1/1 14/1/14 6/1/6
f 1/1/1 24/1/24 14/1/14
f 6/1/6 17/1/17 18/1/18
f 6/1/6 18/1/18 19/1/19
f 19/1/19 15/1/15 6/1/6
f 7/1/7 10/1/10 20/1/20
f 7/1/7 20/1/20 9/1/9
f 20/1/20 10/1/10 22/1/22
f 7/1/7 8/1/8 10/1/10
f 8/1/8 12/1/12 10/1/10
f 12/1/12 8/1/8 13/1/13
f 5/1/5 13/1/13 8/1/8
f 5/1/5 15/1/15 13/1/13
f 15/1/15 16/1/16 13/1/13
f 37/1/37 17/1/17 14/1/14
f 19/1/19 16/1/16 15/1/15
f 27/1/27 16/1/16 19/1/19
f 28/1/28 21/1/21 9/1/9
f 20/1/20 28/1/28 9/1/9
f 10/1/10 32/1/32 22/1/22
f 11/1/11 34/1/34 33/1/33
f 21/1/21 34/1/34 11/1/11
f 9/1/9 21/1/21 11/1/11
f 32/1/32 12/1/12 23/1/23
f 10/1/10 12/1/12 32/1/32
f 24/1/24 33/1/33 41/1/41
f 24/1/24 11/1/11 33/1/33
f 23/1/23 13/1/13 25/1/25
f 12/1/12 13/1/13 23/1/23
f 24/1/24 41/1/41 14/1/14
f 13/1/13 16/1/16 25/1/25
f 37/1/37 14/1/14 41/1/41
f 18/1/18 17/1/17 44/1/44
f 19/1/19 18/1/18 26/1/26
f 18/1/18 44/1/44 26/1/26
f 19/1/19 26/1/26 27/1/27
f 28/1/28 39/1/39 21/1/21
f 20/1/20 29/1/29 28/1/28
f 22/1/22 30/1/30 20/1/20
f 20/1/20 30/1/30 29/1/29
f 22/1/22 31/1/31 30/1/30
f 31/1/31 22/1/22 32/1/32
f 32/1/32 23/1/23 35/1/35
f 35/1/35 23/1/23 36/1/36
f 23/1/23 25/1/25 36/1/36
f 16/1/16 38/1/38 25/1/25
f 17/1/17 37/1/37 51/1/51
f 43/1/43 27/1/27 26/1/26
f 38/1/38 16/1/16 27/1/27
f 43/1/43 38/1/38 27/1/27
f 21/1/21 39/1/39 40/1/40
f 39/1/39 28/1/28 29/1/29
f 29/1/29 30/1/30 45/1/45
f 21/1/21 40/1/40 34/1/34
f 33/1/33 34/1/34 47/1/47
f 48/1/48 35/1/35 36/1/36
f 48/1/48 31/1/31 35/1/35
f 31/1/31 32/1/32 35/1/35
f 33/1/33 47/1/47 41/1/41
f 36/1/36 25/1/25 49/1/49
f 48/1/48 36/1/36 49/1/49
f 41/1/41 60/1/60 42/1/42
f 37/1/37 41/1/41 42/1/42
f 42/1/42 51/1/51 37/1/37
f 38/1/38 53/1/53 50/1/50
f 49/1/49 25/1/25 38/1/38
f 50/1/50 49/1/49 38/1/38
f 65/1/65 17/1/17 51/1/51
f 17/1/17 65/1/65 44/1/44
f 43/1/43 26/1/26 53/1/53
f 53/1/53 38/1/38 43/1/43
f 39/1/39 54/1/54 40/1/40
f 45/1/45 39/1/39 29/1/29
f 46/1/46 45/1/45 30/1/30
f 34/1/34 40/1/40 56/1/56
f 31/1/31 46/1/46 30/1/30
f 57/1/57 46/1/46 31/1/31
f 34/1/34 59/1/59 47/1/47
f 59/1/59 34/1/34 56/1/56
f 31/1/31 48/1/48 57/1/57
f 41/1/41 47/1/47 60/1/60
f 26/1/26 52/1/52 53/1/53
f 44/1/44 65/1/65 66/1/66
f 26/1/26 44/1/44 66/1/66
f 66/1/66 52/1/52 26/1/26
f 39/1/39 67/1/67 54/1/54
f 45/1/45 55/1/55 39/1/39
f 55/1/55 67/1/67 39/1/39
f 45/1/45 68/1/68 55/1/55
f 68/1/68 45/1/45 46/1/46
f 54/1/54 56/1/56 40/1/40
f 46/1/46 57/1/57 68/1/68
f 57/1/57 71/1/71 58/1/58
f 48/1/48 71/1/71 57/1/57
f 47/1/47 61/1/61 60/1/60
f 61/1/61 47/1/47 59/1/59
f 71/1/71 48/1/48 73/1/73
f 49/1/49 50/1/50 73/1/73
f 73/1/73 48/1/48 49/1/49
f 60/1/60 72/1/72 75/1/75
f 42/1/42 60/1/60 75/1/75
f 75/1/75 51/1/51 42/1/42
f 76/1/76 51/1/51 75/1/75
f 50/1/50 62/1/62 74/1/74
f 53/1/53 62/1/62 50/1/50
f 51/1/51 76/1/76 63/1/63
f 65/1/65 51/1/51 63/1/63
f 53/1/53 52/1/52 64/1/64
f 64/1/64 62/1/62 53/1/53
f 54/1/54 67/1/67 80/1/80
f 69/1/69 56/1/56 54/1/54
f 57/1/57 58/1/58 68/1/68
f 71/1/71 70/1/70 58/1/58
f 60/1/60 61/1/61 72/1/72
f 50/1/50 74/1/74 73/1/73
f 63/1/63 76/1/76 77/1/77
f 65/1/65 78/1/78 66/1/66
f 65/1/65 63/1/63 78/1/78
f 63/1/63 77/1/77 78/1/78
f 66/1/66 88/1/88 52/1/52
f 78/1/78 88/1/88 66/1/66
f 52/1/52 88/1/88 64/1/64
f 55/1/55 68/1/68 79/1/79
f 80/1/80 69/1/69 54/1/54
f 80/1/80 91/1/91 69/1/69
f 79/1/79 80/1/80 67/1/67
f 55/1/55 79/1/79 67/1/67
f 58/1/58 70/1/70 79/1/79
f 58/1/58 79/1/79 68/1/68
f 61/1/61 59/1/59 81/1/81
f 69/1/69 59/1/59 56/1/56
f 81/1/81 59/1/59 69/1/69
f 82/1/82 70/1/70 71/1/71
f 61/1/61 81/1/81 72/1/72
f 73/1/73 83/1/83 71/1/71
f 83/1/83 82/1/82 71/1/71
f 74/1/74 84/1/84 87/1/87
f 83/1/83 74/1/74 87/1/87
f 73/1/73 74/1/74 83/1/83
f 75/1/75 94/1/94 76/1/76
f 75/1/75 72/1/72 94/1/94
f 84/1/84 64/1/64 89/1/89
f 74/1/74 62/1/62 84/1/84
f 62/1/62 64/1/64 84/1/84
f 80/1/80 79/1/79 91/1/91
f 70/1/70 85/1/85 79/1/79
f 69/1/69 86/1/86 81/1/81
f 69/1/69 91/1/91 86/1/86
f 82/1/82 100/1/100 85/1/85
f 70/1/70 82/1/82 85/1/85
f 81/1/81 93/1/93 72/1/72
f 72/1/72 93/1/93 94/1/94
f 95/1/95 76/1/76 94/1/94
f 88/1/88 89/1/89 64/1/64
f 87/1/87 84/1/84 89/1/89
f 77/1/77 76/1/76 95/1/95
f 78/1/78 77/1/77 90/1/90
f 77/1/77 95/1/95 90/1/90
f 90/1/90 88/1/88 78/1/78
f 91/1/91 79/1/79 92/1/92
f 92/1/92 79/1/79 85/1/85
f 91/1/91 92/1/92 86/1/86
f 81/1/81 86/1/86 93/1/93
f 83/1/83 100/1/100 82/1/82
f 87/1/87 102/1/102 100/1/100
f 83/1/83 87/1/87 100/1/100
f 89/1/89 90/1/90 101/1/101
f 88/1/88 90/1/90 89/1/89
f 89/1/89 101/1/101 102/1/102
f 102/1/102 87/1/87 89/1/89
f 86/1/86 92/1/92 96/1/96
f 96/1/96 92/1/92 97/1/97
f 92/1/92 85/1/85 97/1/97
f 96/1/96 98/1/98 93/1/93
f 86/1/86 96/1/96 93/1/93
f 97/1/97 99/1/99 96/1/96
f 99/1/99 98/1/98 96/1/96
f 85/1/85 100/1/100 97/1/97
f 100/1/100 99/1/99 97/1/97
f 98/1/98 95/1/95 94/1/94
f 93/1/93 98/1/98 94/1/94
f 101/1/101 95/1/95 98/1/98
f 99/1/99 101/1/101 98/1/98
f 102/1/102 101/1/101 99/1/99
f 100/1/100 102/1/102 99/1/99
f 90/1/90 95/1/95 101/1/101
